<svg width="146" height="144" viewBox="0 0 146 144" fill="none" xmlns="http://www.w3.org/2000/svg">
<path d="M142.702 72.0145C142.702 90.4448 135.36 108.12 122.291 121.152C109.222 134.185 91.4967 141.506 73.0145 141.506C54.5323 141.506 36.8071 134.185 23.7382 121.152C10.6694 108.12 3.32733 90.4448 3.32733 72.0145C3.32733 62.8888 5.12984 53.8524 8.63195 45.4213C12.1341 36.9902 17.2672 29.3295 23.7382 22.8766C30.2093 16.4237 37.8915 11.305 46.3464 7.81274C54.8012 4.32046 63.8631 2.52301 73.0145 2.52301C82.166 2.52301 91.2278 4.32046 99.6827 7.81274C108.138 11.305 115.82 16.4237 122.291 22.8766C128.762 29.3295 133.895 36.9902 137.397 45.4213C140.899 53.8524 142.702 62.8888 142.702 72.0145V72.0145Z" stroke="#F7F0F0" stroke-width="4.84464" stroke-linejoin="round"/>
<path d="M122.762 71.9951C122.762 85.2364 117.502 97.9354 108.139 107.298C98.7763 116.661 86.0773 121.922 72.836 121.922C59.5947 121.922 46.8957 116.661 37.5327 107.298C28.1697 97.9354 22.9096 85.2364 22.9096 71.9951C22.9096 58.7538 28.1697 46.0548 37.5327 36.6918C46.8957 27.3288 59.5947 22.0687 72.836 22.0687C86.0773 22.0687 98.7763 27.3288 108.139 36.6918C117.502 46.0548 122.762 58.7538 122.762 71.9951V71.9951Z" stroke="#F7F0F0" stroke-width="4.84464" stroke-linejoin="round"/>
<path d="M37.8712 56.6882C36.5914 56.4106 33.2476 55.5759 33.2476 55.5759L30.6869 66.9774L32.8209 67.6726L33.1054 66.5603L41.6412 68.785L41.3923 70.1754L44.1664 70.7316L45.7669 63.3623L43.135 62.6323L42.7082 64.4746L40.3609 63.7794L41.0722 60.4424L38.5114 60.0253L37.9424 63.2233L34.2435 62.2499L34.9193 59.1562L36.9821 59.7124L37.8712 56.6882Z" stroke="#F7F0F0" stroke-width="1.19341"/>
<path d="M35.8084 49.7546L39.6495 44.5404L41.8191 46.1742L41.0722 47.1823L48.221 51.8402L49.039 50.415L51.4575 52.1878L47.9009 57.8886L45.1623 56.2201L45.7669 55.1077L38.6537 50.3803L37.9424 51.3536L35.8084 49.7546Z" stroke="#F7F0F0" stroke-width="1.19341"/>
<path d="M42.8089 40.1497L53.7633 32.2243L56.8931 36.5346L54.3323 38.3422L52.6607 36.048L51.3448 37.0908L56.4663 44.043L58.0312 43.0697L59.4538 45.4334L53.3009 49.5699L51.7716 47.6581L52.9097 46.6848L47.7882 39.5936L46.65 40.4278L48.0727 42.5135L45.6542 44.4601L42.8089 40.1497Z" stroke="#F7F0F0" stroke-width="1.19341"/>
<path d="M63.3405 34.0516L63.3567 31.3763L68.6466 31.1974L74.1364 38.0765L74.1966 33.3265L72.5143 33.4156L72.5382 30.6351L78.3854 30.6376L78.3794 33.1728L77.3406 33.2382L77.782 44.8215L73.6373 44.9428L68.178 37.6433L68.3787 42.7291L69.8025 42.7622L69.7559 45.3649L63.7668 45.352L63.8083 42.8194L65.2372 42.7825L65.0278 33.8925L63.3405 34.0516Z" stroke="#F7F0F0" stroke-width="1.19341"/>
<path d="M84.0421 34.3099L83.0462 33.8928L84.0421 31.1119L95.7078 35.2832L94.1429 39.5935L91.1909 38.4464L91.7955 36.7084L88.4523 35.5613L87.5987 38.3422L90.8708 39.4545L90.1595 41.8182L86.8874 40.5321L85.607 43.7649L88.9147 45.0162L89.6971 43.1392L92.4357 44.182L91.0131 48.4923L79.7742 44.5991L80.6278 41.9573L81.6592 42.3744L84.0421 34.3099Z" stroke="#F7F0F0" stroke-width="1.19341"/>
<path d="M105.352 48.9045L107.912 51.2682L111.327 47.5141L108.41 45.0808L107.343 46.4017C107.343 46.4017 107.467 45.4322 107.396 44.9543C107.328 44.4927 107.174 44.0355 106.944 43.627C106.599 43.0151 106.115 42.4741 105.586 42.0048C105.048 41.5285 104.458 41.0624 103.775 40.825C103.108 40.5934 102.364 40.545 101.662 40.6283C100.957 40.712 100.229 40.9137 99.6504 41.3165C99.2323 41.6075 98.9664 42.0708 98.6947 42.4964C98.4684 42.8508 98.236 43.2196 98.1414 43.627C98.0227 44.1384 98.0622 44.6815 98.1414 45.2001C98.2347 45.8102 98.4521 46.4004 98.6947 46.9699C98.9945 47.6737 99.4424 48.3084 99.8013 48.9854C100.077 49.5059 100.517 49.9787 100.606 50.5585C100.652 50.8542 100.659 51.2203 100.455 51.4433C100.293 51.6213 99.9907 51.685 99.751 51.64C99.2932 51.554 98.9899 51.1101 98.6444 50.8043C98.3367 50.5319 97.9306 50.3009 97.7893 49.9194C97.515 49.1784 97.8905 48.3468 97.9402 47.5598L95.5762 45.2001L91.9548 48.8379L94.7212 51.4433L95.6265 50.5585C95.6265 50.5585 95.6848 51.4825 95.7774 51.9349C95.87 52.3874 95.9634 52.8521 96.1798 53.2622C96.4042 53.6876 96.7606 54.0346 97.0852 54.3929C97.4467 54.7919 97.8107 55.1974 98.242 55.5236C98.7651 55.9191 99.319 56.3201 99.9522 56.5068C100.547 56.682 101.192 56.6294 101.813 56.6051C102.439 56.5805 103.117 56.6382 103.674 56.3593C104.065 56.1638 104.306 55.7605 104.58 55.4252C104.919 55.0095 105.327 54.6069 105.485 54.0979C105.689 53.4392 105.598 52.7126 105.485 52.0333C105.4 51.5218 105.181 51.0388 104.982 50.5585C104.633 49.7161 104.159 48.928 103.775 48.1005C103.511 47.5324 103.134 46.994 103.02 46.3799C102.958 46.0409 102.86 45.6235 103.071 45.3476C103.315 45.028 103.83 44.8652 104.228 44.9543C104.574 45.032 104.78 45.4056 104.982 45.6917C105.191 45.9875 105.332 46.3297 105.435 46.6749C105.534 47.0087 105.56 47.3605 105.586 47.7072C105.601 47.9197 105.628 48.1373 105.586 48.3463C105.546 48.5436 105.43 48.719 105.352 48.9045L105.352 48.9045Z" stroke="#F7F0F0" stroke-width="1.19341"/>
<path d="M112.652 65.1091L114.015 68.288L118.742 66.2229L117.189 63.1142L115.541 63.6189C115.541 63.6189 116.098 62.9222 116.236 62.4579C116.369 62.0105 116.436 61.5294 116.378 61.0658C116.292 60.373 116.102 59.6834 115.811 59.0434C115.516 58.3953 115.168 57.7358 114.64 57.2443C114.126 56.766 113.46 56.4261 112.777 56.2223C112.092 56.0178 111.343 55.943 110.634 56.0481C110.122 56.1239 109.689 56.4681 109.257 56.7439C108.896 56.9737 108.52 57.215 108.271 57.5553C107.957 57.9831 107.747 58.485 107.608 58.9912C107.444 59.5878 107.382 60.2112 107.372 60.8272C107.36 61.5902 107.495 62.348 107.542 63.1083C107.578 63.6941 107.72 64.2877 107.62 64.8651C107.569 65.1604 107.38 65.4715 107.109 65.6127C106.892 65.7253 106.555 65.6771 106.377 65.5113C106.039 65.1957 105.902 64.7239 105.71 64.3072C105.54 63.9373 105.207 63.5558 105.295 63.1584C105.466 62.3885 106.015 61.6243 106.393 60.9257L105.209 57.8291L100.341 59.7052L101.791 63.1868L102.998 62.7402C102.998 62.7402 102.663 63.6068 102.557 64.0568C102.452 64.5067 102.342 64.9681 102.369 65.4288C102.396 65.9066 102.578 66.3654 102.726 66.8219C102.891 67.3304 103.056 67.8456 103.315 68.3154C103.63 68.885 103.972 69.472 104.476 69.8949C104.95 70.2921 105.567 70.5015 106.149 70.7268C106.735 70.9539 107.336 71.2771 107.967 71.2447C108.409 71.222 108.801 70.9502 109.194 70.7532C109.682 70.509 110.228 70.3044 110.587 69.9028C111.053 69.3829 111.275 68.6832 111.457 68.0181C111.594 67.5174 111.596 66.9892 111.615 66.4714C111.649 65.5633 111.544 64.655 111.539 63.7463C111.535 63.1225 111.415 62.4807 111.569 61.8749C111.654 61.5405 111.739 61.1204 112.05 60.9527C112.41 60.7584 112.952 60.815 113.281 61.0551C113.568 61.2642 113.6 61.6874 113.666 62.0291C113.733 62.3823 113.719 62.7511 113.668 63.107C113.619 63.4513 113.495 63.783 113.372 64.1095C113.297 64.3097 113.193 64.4991 113.103 64.6929C112.953 64.8323 112.47 65.286 112.617 65.1438L112.652 65.1091Z" stroke="#F7F0F0" stroke-width="1.19341"/>
<path d="M106.168 102.597C106.056 102.21 104.685 101.866 104.425 101.808C104.165 101.751 100.998 101.249 101.032 101.228C101.066 101.207 100.919 101.079 100.688 101.004C100.456 100.929 99.8733 100.833 99.5752 100.62C99.277 100.407 99.2057 100.073 98.7947 99.9495C98.3838 99.8266 96.7161 99.5481 96.7161 99.5481C96.7161 99.5481 95.9839 98.9676 93.2738 98.3414C92.9118 98.1082 90.1827 97.175 87.1767 96.9315C82.4003 95.6971 79.5795 96.3102 79.4067 97.417L66.2169 95.1319C66.3805 94.8312 64.2672 93.5076 61.4495 92.7016C58.5851 91.8823 56.6161 91.7314 56.6161 91.7314C55.6619 91.4877 52.3636 90.9082 50.9924 91.2522C50.5177 91.2406 48.9689 91.1259 48.1881 91.3728C46.8271 91.0578 46.5646 91.0964 46.5646 91.0964C46.5646 91.0964 46.0678 91.4039 46.2556 91.566C46.4433 91.7282 45.9262 91.7307 45.9262 91.7307L43.9759 91.3891C43.9759 91.3891 42.8381 91.2477 42.9126 91.6512C42.9853 92.0442 44.2181 92.3397 44.2181 92.3397C44.2181 92.3397 46.2354 92.6537 46.5949 92.7885C46.9546 92.9238 46.7572 93.3251 47.2206 93.4755C47.6838 93.6257 49.0702 93.9194 49.0702 93.9194C49.0702 93.9194 49.541 94.3837 52.1541 95.0302C54.3264 95.9907 57.789 96.5878 58.7204 96.6066C60.689 97.2157 66.2193 97.922 66.516 96.3044L80.185 98.7256C81.0664 100.03 85.6937 101.755 89.2179 102.035C91.2024 102.594 93.7591 102.799 94.5836 102.675C95.8053 102.931 97.7327 102.795 97.8164 102.668C97.8164 102.668 98.3216 102.756 98.5289 102.783C99.3378 102.967 99.5056 102.583 99.7328 102.588C100.135 102.597 100.496 102.776 100.749 102.798C101.001 102.82 101.439 102.647 101.246 102.489C101.246 102.489 100.85 102.296 101.006 102.3C101.023 102.3 101.098 102.279 101.195 102.294C101.293 102.308 101.413 102.358 101.572 102.384C101.721 102.407 101.904 102.409 102.091 102.439C102.254 102.466 102.418 102.521 102.598 102.551C102.725 102.571 102.771 102.579 102.902 102.6C103.025 102.621 103.245 102.633 103.378 102.655C103.563 102.685 103.746 102.75 103.931 102.782C104.093 102.81 104.253 102.802 104.402 102.826C104.531 102.847 104.652 102.9 104.763 102.917C105.102 102.968 105.341 102.999 105.362 102.999C105.459 102.998 106.281 102.985 106.168 102.597" fill="black"/>
<path d="M106.168 102.597C106.056 102.21 104.685 101.866 104.425 101.808C104.165 101.751 100.998 101.249 101.032 101.228C101.066 101.207 100.919 101.079 100.688 101.004C100.456 100.929 99.8733 100.833 99.5752 100.62C99.277 100.407 99.2057 100.073 98.7947 99.9495C98.3838 99.8266 96.7161 99.5481 96.7161 99.5481C96.7161 99.5481 95.9839 98.9676 93.2738 98.3414C92.9118 98.1082 90.1827 97.175 87.1767 96.9315C82.4003 95.6971 79.5795 96.3102 79.4067 97.417L66.2169 95.1319C66.3805 94.8312 64.2672 93.5076 61.4495 92.7016C58.5851 91.8823 56.6161 91.7314 56.6161 91.7314C55.6619 91.4877 52.3636 90.9082 50.9924 91.2522C50.5177 91.2406 48.9689 91.1259 48.1881 91.3728C46.8271 91.0578 46.5646 91.0964 46.5646 91.0964C46.5646 91.0964 46.0678 91.4039 46.2556 91.566C46.4433 91.7282 45.9262 91.7307 45.9262 91.7307L43.9759 91.3891C43.9759 91.3891 42.8381 91.2477 42.9126 91.6512C42.9853 92.0442 44.2181 92.3397 44.2181 92.3397C44.2181 92.3397 46.2354 92.6537 46.5949 92.7885C46.9546 92.9238 46.7572 93.3251 47.2206 93.4755C47.6838 93.6257 49.0702 93.9194 49.0702 93.9194C49.0702 93.9194 49.541 94.3837 52.1541 95.0302C54.3264 95.9907 57.789 96.5878 58.7204 96.6066C60.689 97.2157 66.2193 97.922 66.516 96.3044L80.185 98.7256C81.0664 100.03 85.6937 101.755 89.2179 102.035C91.2024 102.594 93.7591 102.799 94.5836 102.675C95.8053 102.931 97.7327 102.795 97.8164 102.668C97.8164 102.668 98.3216 102.756 98.5289 102.783C99.3378 102.967 99.5056 102.583 99.7328 102.588C100.135 102.597 100.496 102.776 100.749 102.798C101.001 102.82 101.439 102.647 101.246 102.489C101.246 102.489 100.85 102.296 101.006 102.3C101.023 102.3 101.098 102.279 101.195 102.294C101.293 102.308 101.413 102.358 101.572 102.384C101.721 102.407 101.904 102.409 102.091 102.439C102.254 102.466 102.418 102.521 102.598 102.551C102.725 102.571 102.771 102.579 102.902 102.6C103.025 102.621 103.245 102.633 103.378 102.655C103.563 102.685 103.746 102.75 103.931 102.782C104.093 102.81 104.253 102.802 104.402 102.826C104.531 102.847 104.652 102.9 104.763 102.917C105.102 102.968 105.341 102.999 105.362 102.999C105.459 102.998 106.281 102.985 106.168 102.597" stroke="#F7F0F0" stroke-width="0.0989793"/>
<path d="M89.4875 74.5317C88.4552 74.9872 87.5906 75.6986 86.9075 76.5393C86.5619 76.9561 86.2533 77.4019 85.9816 77.868C85.71 78.334 85.4609 78.8133 85.2461 79.3084C84.8193 80.2985 84.471 81.323 84.221 82.372C83.962 83.4176 83.777 84.4834 83.6913 85.5518C83.6435 86.0873 83.6227 86.6176 83.6371 87.1505C83.6471 87.6948 83.6732 88.2365 83.7003 88.779C83.759 89.8624 83.8781 90.9405 84.064 92.0045C84.1578 92.5356 84.2824 93.0606 84.4268 93.5794C84.5711 94.0991 84.7561 94.6056 84.9808 95.0946C85.4226 96.0921 86.1035 96.9669 87.0022 97.6102H86.9992C86.4809 97.375 86.0347 97.0252 85.6297 96.637C85.2254 96.236 84.8906 95.7699 84.6009 95.2836C84.0324 94.3005 83.6615 93.2251 83.3998 92.1382C83.1264 91.0504 82.9856 89.9424 82.8782 88.8362C82.8277 88.2831 82.7988 87.7282 82.7762 87.1742C82.7537 86.6097 82.7753 86.0416 82.8204 85.4814C83.0334 83.247 83.6028 81.0442 84.6271 79.0287C85.1388 78.0236 85.7813 77.0704 86.5871 76.2614C87.3921 75.4594 88.3866 74.8078 89.4875 74.5317V74.5317Z" fill="black" stroke="#F7F0F0" stroke-width="0.0989793"/>
<path d="M92.7633 74.756C91.7318 75.2123 90.8664 75.9237 90.1842 76.7635C89.8377 77.1803 89.529 77.6262 89.2583 78.0931C88.9858 78.5583 88.7367 79.0384 88.5219 79.5326C88.0951 80.5228 87.7467 81.5472 87.4977 82.5963C87.2378 83.6418 87.0528 84.7085 86.9671 85.7769C86.9201 86.3116 86.8985 86.8427 86.9138 87.3756C86.9228 87.919 86.9499 88.4616 86.9761 89.0033C87.0356 90.0866 87.1539 91.1647 87.3398 92.2287C87.4336 92.7608 87.5581 93.2857 87.7025 93.8046C87.8469 94.3234 88.0319 94.8299 88.2566 95.3197C88.6985 96.3174 89.3798 97.1918 90.2782 97.8355H90.2754C89.757 97.5999 89.311 97.2493 88.9055 96.8612C88.5021 96.4602 88.1664 95.995 87.8776 95.5079C87.3091 94.5248 86.9382 93.4493 86.6756 92.3624C86.403 91.2755 86.2614 90.1667 86.154 89.0613C86.1043 88.5073 86.0755 87.9533 86.0529 87.3993C86.0294 86.8339 86.0511 86.2658 86.0962 85.7066C86.3101 83.4712 86.8786 81.2693 87.9038 79.253C88.4154 78.2479 89.058 77.2955 89.8629 76.4856C90.6679 75.6837 91.6623 75.0321 92.7633 74.756V74.756Z" fill="black" stroke="#F7F0F0" stroke-width="0.0989793"/>
<path d="M96.147 78.8517C95.4423 79.1562 94.8711 79.6569 94.3822 80.2273C94.1449 80.5131 93.9328 80.8191 93.7469 81.1392C93.5601 81.4593 93.3896 81.7881 93.2425 82.1276C92.9492 82.8064 92.71 83.5099 92.5386 84.2292C92.3608 84.9468 92.2345 85.6784 92.1749 86.4118C92.1415 86.7785 92.1253 87.1425 92.1352 87.5084C92.1424 87.8821 92.1632 88.2532 92.1812 88.626C92.2218 89.3691 92.304 90.1086 92.4312 90.8385C92.5657 91.5657 92.7488 92.2885 93.0602 92.9595C93.3634 93.6313 93.8137 94.2513 94.4517 94.6883C94.1007 94.5265 93.7812 94.2926 93.5051 94.0173C93.228 93.7421 92.9979 93.4229 92.7994 93.0887C92.4095 92.4143 92.1551 91.6765 91.9746 90.9308C91.7878 90.1842 91.6912 89.4236 91.6172 88.6647C91.5829 88.2857 91.5649 87.9049 91.5504 87.5242C91.5351 87.1373 91.5477 86.7468 91.5775 86.3634C91.7237 84.8298 92.1144 83.3191 92.8174 81.935C93.1685 81.2456 93.6098 80.5922 94.162 80.0365C94.7102 79.4746 95.3858 79.0766 96.144 78.8517H96.147Z" fill="black" stroke="#F7F0F0" stroke-width="0.0989793"/>
<path d="M106.13 87.0872L106.511 87.1109C106.456 87.4257 106.444 87.7511 106.461 88.0747C106.49 88.4003 106.471 88.2388 106.516 88.5593V88.5644L106.079 88.5363C106.052 88.3921 106.033 88.2453 106.024 88.0984C106.007 87.7607 106.035 87.4178 106.13 87.0872Z" fill="black" stroke="#F7F0F0" stroke-width="0.0989793"/>
<path d="M107.159 86.0391C107.196 86.0398 107.177 86.0391 107.216 86.0416C107.067 86.0952 106.95 86.1788 106.857 86.2799L106.603 86.2641C106.765 86.1165 106.938 86.0625 107.153 86.0391H107.159Z" fill="black" stroke="#F7F0F0" stroke-width="0.0989793"/>
<path d="M106.148 88.8257L106.569 88.8529C106.596 88.976 106.627 89.0991 106.666 89.2196C106.781 89.6044 106.984 89.9468 107.271 90.2313H107.27C107.055 90.1696 106.883 90.0272 106.724 89.8809C106.572 89.7226 106.445 89.5397 106.347 89.3454C106.198 89.0046 106.264 89.1778 106.148 88.8259V88.8257Z" fill="black" stroke="#F7F0F0" stroke-width="0.0989793"/>
<path d="M104.877 88.7435L105.276 88.7694C105.291 88.823 105.304 88.8775 105.321 88.9312C105.436 89.3162 105.64 89.6587 105.927 89.9433C105.712 89.8822 105.54 89.7392 105.38 89.5924C105.228 89.4342 105.1 89.2512 105.003 89.0569C104.908 88.8502 104.952 88.9546 104.87 88.7435H104.877Z" fill="black" stroke="#F7F0F0" stroke-width="0.0989793"/>
<path d="M104.746 86.9973L105.137 87.023C105.108 87.2744 105.103 87.5312 105.117 87.7862C105.131 88.0193 105.162 88.2514 105.208 88.48L104.78 88.4528C104.726 88.2417 104.693 88.0263 104.68 87.81C104.661 87.5375 104.691 87.2658 104.736 86.9973H104.746Z" fill="black" stroke="#F7F0F0" stroke-width="0.0989793"/>
<path d="M105.81 85.7505C105.83 85.7505 105.851 85.7514 105.872 85.7532C105.647 85.8267 105.5 85.997 105.376 86.1847H105.371L105.089 86.1665C105.138 86.0997 105.192 86.0355 105.255 85.9783C105.408 85.8402 105.613 85.7505 105.81 85.7505V85.7505Z" fill="black" stroke="#F7F0F0" stroke-width="0.0989793"/>
<path d="M104.578 85.5903L104.608 85.5923C104.34 85.6881 104.177 85.8789 104.071 86.1005L103.769 86.0812V86.0809C103.906 85.8967 103.832 85.9846 103.991 85.8174C104.153 85.6701 104.326 85.6138 104.54 85.5903H104.578Z" fill="black" stroke="#F7F0F0" stroke-width="0.0989793"/>
<path d="M103.653 88.6648L104.035 88.6894C104.044 88.7157 104.049 88.7439 104.058 88.7703C104.179 89.1387 104.348 89.4966 104.664 89.7824C104.456 89.7208 104.272 89.5872 104.117 89.4324C103.964 89.2732 103.838 89.0903 103.739 88.896C103.668 88.743 103.702 88.82 103.638 88.6648H103.653Z" fill="black" stroke="#F7F0F0" stroke-width="0.0989793"/>
<path d="M103.463 86.9142L103.866 86.9403C103.844 87.1672 103.841 87.3976 103.853 87.6253C103.905 88.1437 103.869 87.8862 103.961 88.3978V88.3998H103.958L103.539 88.3728C103.472 88.1362 103.432 87.8935 103.416 87.6499C103.4 87.4036 103.423 87.1578 103.459 86.9142H103.463Z" fill="black" stroke="#F7F0F0" stroke-width="0.0989793"/>
<path d="M102.296 86.8392L102.699 86.8647C102.671 87.1144 102.666 87.3677 102.679 87.62C102.726 88.0901 102.695 87.8564 102.773 88.3211V88.323H102.766L102.345 88.2954C102.29 88.0817 102.257 87.8636 102.243 87.6438C102.229 87.3765 102.243 87.1047 102.296 86.8392V86.8392Z" fill="black" stroke="#F7F0F0" stroke-width="0.0989793"/>
<path d="M102.436 88.5857L102.842 88.612C102.855 88.663 102.868 88.7149 102.884 88.765C103.006 89.1334 103.175 89.4913 103.489 89.7762C103.282 89.7147 103.098 89.5819 102.943 89.4271C102.79 89.268 102.664 89.0851 102.565 88.8907C102.472 88.6897 102.516 88.7913 102.435 88.5861V88.5857H102.436Z" fill="black" stroke="#F7F0F0" stroke-width="0.0989793"/>
<path d="M103.405 85.585L103.434 85.5869V85.5874C103.206 85.6621 103.058 85.8356 102.933 86.0267L102.645 86.0082C102.696 85.9387 102.752 85.8719 102.817 85.8121C102.979 85.6646 103.152 85.6084 103.367 85.585H103.405Z" fill="black" stroke="#F7F0F0" stroke-width="0.0989793"/>
<path d="M101.089 88.4986L101.486 88.5249C101.495 88.5539 101.501 88.5838 101.51 88.6137C101.632 88.9822 101.801 89.3401 102.116 89.625C101.908 89.5634 101.724 89.4298 101.569 89.275C101.418 89.1158 101.29 88.9338 101.193 88.7395C101.119 88.5804 101.154 88.6606 101.087 88.4987V88.4986H101.089Z" fill="black" stroke="#F7F0F0" stroke-width="0.0989793"/>
<path d="M100.913 86.7504L101.319 86.7767C101.298 87.0054 101.294 87.2375 101.306 87.4688C101.358 87.9821 101.322 87.7269 101.413 88.2339V88.2354H101.41L100.99 88.2083C100.925 87.9744 100.885 87.7335 100.87 87.4925C100.857 87.2454 100.869 86.9957 100.913 86.7504V86.7504Z" fill="black" stroke="#F7F0F0" stroke-width="0.0989793"/>
<path d="M102.037 85.4338L102.061 85.4357V85.4359C101.808 85.5193 101.654 85.7185 101.527 85.9361L101.227 85.9167C101.288 85.8244 101.361 85.7374 101.445 85.6608C101.599 85.5177 101.778 85.4566 101.985 85.4338H102.037Z" fill="black" stroke="#F7F0F0" stroke-width="0.0989793"/>
<path d="M99.5265 86.6603L99.9322 86.6862C99.9195 86.8779 99.9204 87.0713 99.9304 87.2639C99.9493 87.5611 99.9917 87.8584 100.062 88.1485L99.6497 88.1213C99.5622 87.8504 99.5116 87.5699 99.4945 87.2876C99.4909 86.8689 99.4828 87.078 99.5188 86.6603H99.5265Z" fill="black" stroke="#F7F0F0" stroke-width="0.0989793"/>
<path d="M100.657 85.229L100.687 85.2308C100.375 85.3416 100.206 85.5791 100.101 85.8437L99.7847 85.8235V85.8225C99.858 85.6855 99.9593 85.5668 100.068 85.4559C100.229 85.3087 100.402 85.2523 100.616 85.229H100.657Z" fill="black" stroke="#F7F0F0" stroke-width="0.0989793"/>
<path d="M99.77 88.4138L100.145 88.4379C100.266 88.7966 100.434 89.1422 100.741 89.4201C100.533 89.3594 100.349 89.2258 100.194 89.0701C100.041 88.9118 99.915 88.7289 99.8166 88.5346C99.7781 88.4542 99.7967 88.4944 99.761 88.4138H99.77Z" fill="black" stroke="#F7F0F0" stroke-width="0.0989793"/>
<path d="M97.9864 89.5601C97.8482 89.9902 97.7231 90.4238 97.612 90.8613H97.514L95.6628 90.8596C95.6835 90.4032 95.8487 89.9055 95.9786 89.6206L95.9831 89.61L97.9787 89.5601H97.9864Z" fill="black" stroke="#F7F0F0" stroke-width="0.0989793"/>
<path d="M99.7289 82.5989V82.5992C99.5161 82.9048 99.1371 82.9764 98.7906 83.0483C98.6372 83.0791 98.3944 83.24 98.1751 83.5056L96.1906 83.6038H96.153C96.2936 83.4691 96.2196 83.5355 96.3757 83.4053C96.7033 83.1477 96.9957 82.9173 97.2502 82.7053L99.7289 82.5989Z" fill="black" stroke="#F7F0F0" stroke-width="0.0989793"/>
<path d="M97.7799 84.2365C97.6087 84.8025 97.682 85.2768 97.8819 85.8226C98.0389 86.2016 98.1499 86.4215 98.2248 86.6554L96.4001 86.6827C96.0166 85.8235 95.587 85.0444 95.7386 84.3365L97.7757 84.2365H97.7799Z" fill="black" stroke="#F7F0F0" stroke-width="0.0989793"/>
<path d="M99.2743 92.6104C99.4945 93.0659 99.6298 94.3278 100.176 94.3788L98.3583 94.2732C98.3583 94.2732 97.6391 93.5829 97.8475 92.7994C97.9224 92.7933 97.936 92.7467 97.9026 92.679L99.2743 92.6104Z" fill="black" stroke="#F7F0F0" stroke-width="0.0989793"/>
<path d="M98.3449 87.3657C98.3552 87.5355 98.3595 87.7057 98.3609 87.8759V88.0389C98.3498 88.3135 98.272 88.5804 98.2022 88.845L96.2999 88.8925C96.4885 88.422 96.6392 87.9041 96.5959 87.3897L98.1835 87.3657H98.3449Z" fill="black" stroke="#F7F0F0" stroke-width="0.0989793"/>
<path d="M100.941 80.0642C100.701 80.0955 100.542 80.2662 100.4 80.4419L98.6335 80.55C98.8664 80.3196 99.2616 80.1948 99.8338 80.1148L100.933 80.0642H100.941Z" fill="black" stroke="#F7F0F0" stroke-width="0.0989793"/>
<path d="M96.6591 91.5701L97.4974 91.571C97.4902 91.7011 97.4947 91.8181 97.5154 91.9174C97.52 91.9429 97.529 91.9641 97.5353 91.9869L96.9162 92.0177C96.733 91.9509 96.5345 91.8972 96.3252 91.8691C96.1106 91.844 95.9368 91.7395 95.8124 91.5701H96.6591Z" fill="black" stroke="#F7F0F0" stroke-width="0.0989793"/>
<path d="M100.078 81.1726V81.173C100.009 81.4051 99.9636 81.6427 99.9213 81.8805L98.0303 81.9614V81.9607C98.2058 81.7639 98.313 81.5285 98.3728 81.2773L100.078 81.1726Z" fill="black" stroke="#F7F0F0" stroke-width="0.0989793"/>
<path d="M62.9182 71.7319V71.732C62.3283 71.8061 61.7584 71.9726 61.1994 72.1645C60.6507 72.372 60.13 72.6455 59.6599 72.9832C58.7123 73.6541 57.9669 74.5581 57.3867 75.5421C56.8109 76.5322 56.3787 77.6015 56.0574 78.7034C55.8968 79.2547 55.7542 79.8114 55.6333 80.3741C55.5737 80.6564 55.5169 80.9387 55.4627 81.2236C55.4059 81.5103 55.3652 81.7794 55.3319 82.0625C55.2073 83.1872 55.257 84.3374 55.4329 85.463C55.6026 86.5903 55.9284 87.6957 56.4139 88.728C56.9066 89.7542 57.5843 90.7075 58.4894 91.4294C58.9388 91.7926 59.4469 92.088 59.9865 92.3149C60.528 92.5418 61.1028 92.6974 61.6921 92.7933C61.0965 92.7572 60.5009 92.6526 59.9288 92.4618C59.3567 92.2727 58.8107 91.9966 58.3153 91.651C57.8225 91.3001 57.3813 90.8816 56.995 90.4199C56.6088 89.9582 56.2848 89.4509 56.006 88.9224C55.4465 87.8645 55.0972 86.7143 54.8879 85.5492C54.6893 84.3805 54.6316 83.189 54.7534 82.001C54.7895 81.7072 54.8391 81.4021 54.8978 81.119C54.9546 80.8323 55.0142 80.5456 55.0774 80.2589C55.2073 79.6856 55.3508 79.1131 55.5304 78.5504C55.8905 77.4274 56.3498 76.3212 56.9977 75.3152C57.6366 74.3083 58.4714 73.3982 59.4992 72.7536C60.0136 72.4362 60.5686 72.1847 61.1471 72.0167C61.7207 71.8382 62.3205 71.7738 62.9182 71.7319V71.7319Z" fill="black" stroke="#F7F0F0" stroke-width="0.0989793"/>
<path d="M57.9605 71.2995V71.2996C56.9694 71.683 56.1626 72.3573 55.4609 73.123C54.7858 73.9021 54.2453 74.7841 53.7986 75.7057C53.3528 76.6281 52.99 77.591 52.7022 78.5732C52.4161 79.5537 52.1851 80.5571 52.075 81.5622C52.0488 81.8119 52.028 82.0625 52.0271 82.3052L52.0308 82.4855L52.0425 82.6772L52.0678 83.0615C52.1039 83.5724 52.1571 84.0824 52.2203 84.5915C52.343 85.609 52.5352 86.6176 52.8005 87.6051C53.0758 88.5891 53.4322 89.5564 53.961 90.4349C54.4801 91.3343 55.2262 92.0808 56.1485 92.5853H56.1482C55.6435 92.3993 55.1954 92.106 54.784 91.7706C54.3743 91.4277 54.0251 91.0179 53.7192 90.5844C53.1128 89.7085 52.6841 88.7298 52.3637 87.7291C52.038 86.7275 51.8304 85.696 51.6734 84.6619C51.5967 84.144 51.5435 83.6234 51.5001 83.1028L51.4704 82.7124L51.4577 82.5171L51.4505 82.3087C51.4505 82.0335 51.4685 81.7671 51.4965 81.5024C51.6238 80.4489 51.862 79.4245 52.1751 78.4202C52.5009 77.4213 52.8853 76.4364 53.3934 75.5087C53.8888 74.5766 54.5025 73.6963 55.2515 72.9357C56.0033 72.1667 56.9253 71.6182 57.9605 71.2995V71.2995Z" fill="black" stroke="#F7F0F0" stroke-width="0.0989793"/>
<path d="M50.7602 76.2693C50.5607 76.439 50.4082 76.6501 50.2738 76.869C50.1411 77.0889 50.0238 77.3175 49.9245 77.5541C49.717 78.0219 49.5518 78.5082 49.4128 79.0006C49.1385 79.9855 48.9643 80.9967 48.8867 82.0133C48.8037 83.0298 48.829 84.0543 48.9725 85.0646C49.0438 85.5694 49.1529 86.0697 49.3 86.5595C49.4362 87.0556 49.6419 87.5291 49.8569 87.9965H49.8567C49.6663 87.7018 49.5104 87.3882 49.3614 87.0722C49.3407 87.0256 49.319 86.9799 49.2982 86.9333C49.0465 86.3467 48.8624 85.7285 48.7478 85.0998C48.6494 84.5889 48.5971 84.0701 48.5691 83.5513C48.5438 83.0307 48.5601 82.511 48.5971 81.9922C48.681 80.9563 48.8714 79.9274 49.1963 78.9373C49.3569 78.4422 49.5536 77.9577 49.7964 77.4943C49.9173 77.263 50.0563 77.0396 50.2097 76.8277C50.3622 76.6158 50.5409 76.4144 50.7602 76.2693V76.2693Z" fill="black" stroke="#F7F0F0" stroke-width="0.0989793"/>
<path d="M47.6944 78.8087C47.4851 79.0493 47.3291 79.3257 47.1911 79.6091C47.0684 79.8923 46.9863 80.1886 46.9583 80.4902C46.9249 80.791 46.9475 81.0961 47.0142 81.396C47.0828 81.6958 47.2019 81.9878 47.3526 82.2789C47.1054 82.059 46.9141 81.7741 46.7967 81.4584C46.6767 81.1436 46.637 80.7989 46.6686 80.4621C46.7047 80.1262 46.8112 79.7964 46.989 79.508C47.16 79.218 47.4038 78.9847 47.6929 78.8087H47.6944Z" fill="black" stroke="#F7F0F0" stroke-width="0.0989793"/>
<path d="M45.4566 78.5258C45.213 78.7685 45.0884 79.0701 45.0027 79.3779C44.9224 79.6883 44.8809 80.0092 44.8755 80.3302L44.8737 80.572L44.8881 80.813C44.8998 80.973 44.9233 81.133 44.9522 81.2913C45.0056 81.6167 45.1383 81.9169 45.3049 82.2004H45.3048C45.0078 81.9928 44.8587 81.6688 44.732 81.3467C44.6219 81.017 44.5768 80.6696 44.584 80.324C44.5966 79.9793 44.6535 79.632 44.7879 79.3084C44.9179 78.9901 45.1363 78.6726 45.4566 78.5258V78.5258Z" fill="black" stroke="#F7F0F0" stroke-width="0.0989793"/>
<path d="M46.5503 78.6964C46.2953 78.891 46.1629 79.1733 46.0586 79.4631C45.9756 79.7525 45.9431 80.0567 45.9467 80.3627C45.9467 80.6687 45.9783 80.9774 46.0315 81.2825C46.0604 81.4347 46.092 81.5868 46.1389 81.7354C46.1849 81.8831 46.2355 82.0317 46.3374 82.1593C46.1894 82.0775 46.092 81.9297 46.0072 81.7899C45.925 81.6448 45.861 81.4918 45.8104 81.3353C45.702 81.0234 45.6716 80.6945 45.6563 80.3679V80.3589C45.6703 80.0338 45.6596 80.022 45.7573 79.6239C45.7773 79.5421 45.8161 79.4657 45.8456 79.3866C45.9816 79.0688 46.2218 78.8251 46.549 78.6964H46.5503Z" fill="black" stroke="#F7F0F0" stroke-width="0.0989793"/>
<path d="M63.9497 79.8381C63.3415 80.0353 62.8693 80.4365 62.535 80.9607C62.3816 81.2236 62.2724 81.5076 62.1902 81.8022C62.1027 82.0915 62.0765 82.3949 62.0684 82.6992C62.0477 83.3068 62.1144 83.9215 62.2561 84.5142C62.3301 84.8096 62.4267 85.1033 62.5837 85.3636C62.6613 85.4938 62.7552 85.6169 62.8815 85.7048C63.0051 85.7927 63.1649 85.835 63.3219 85.8094C63.1685 85.8508 62.997 85.8209 62.8598 85.7356C62.7218 85.6529 62.6126 85.5298 62.5232 85.4005C62.3464 85.1367 62.2363 84.8395 62.1478 84.5414C62.0603 84.2424 62.0071 83.9347 61.9701 83.626C61.9331 83.3174 61.9159 83.0069 61.9231 82.6948C61.9358 82.3844 61.9673 82.0687 62.063 81.7671C62.1523 81.4698 62.2642 81.17 62.4393 80.9053C62.6108 80.6397 62.8274 80.3997 63.09 80.2185C63.3467 80.0349 63.6453 79.9254 63.948 79.8381H63.9497Z" fill="black" stroke="#F7F0F0" stroke-width="0.0989793"/>
<path d="M63.5256 73.9406C64.0002 74.0025 64.4363 74.1922 64.8325 74.4473C65.2314 74.7111 65.568 75.0514 65.8513 75.4251C66.4199 76.1735 66.7881 77.0431 67.0461 77.9295C67.3024 78.8186 67.4468 79.7366 67.4974 80.6582C67.5118 80.8991 67.5181 81.1418 67.5199 81.3836L81.657 83.0149V83.1443L81.604 83.5803L67.5118 81.9543C67.4965 82.4441 67.4586 82.9331 67.399 83.4194C67.454 82.9322 67.4892 82.4424 67.501 81.9526L65.4335 81.7143C65.4516 82.205 65.429 82.6983 65.3685 83.1846C65.4254 82.6965 65.4434 82.2041 65.4218 81.7125L63.1396 81.4496L63.2082 80.8859L65.3776 81.1365C65.3306 80.7303 65.2512 80.3284 65.1357 79.9353C64.9787 79.413 64.7522 78.9047 64.4138 78.4703C64.0844 78.0386 63.6016 77.6886 63.0457 77.627C62.4898 77.5646 61.9412 77.7985 61.5206 78.145C61.0929 78.4914 60.7554 78.9355 60.4819 79.4077C59.9387 80.3592 59.6337 81.4276 59.5037 82.5066C59.3702 83.5847 59.4108 84.6935 59.7104 85.7426C59.8629 86.2641 60.0849 86.7723 60.4179 87.2067C60.7436 87.6403 61.221 87.992 61.776 88.058C62.331 88.1248 62.8842 87.8944 63.3092 87.5497C63.7415 87.205 64.0844 86.7618 64.3623 86.2896C64.43 86.1726 64.4941 86.0548 64.5555 85.9343C64.5916 85.8631 64.624 85.7901 64.6574 85.7171C64.8867 85.2238 65.0617 84.7059 65.1872 84.1756C64.5067 84.0824 63.8254 83.9874 63.1459 83.8889C63.8317 83.961 64.5167 84.0375 65.2016 84.1158C65.272 83.808 65.3288 83.4967 65.3685 83.1846C65.3315 83.4967 65.2774 83.808 65.2088 84.1167C65.8901 84.1941 66.5706 84.2723 67.251 84.3532C67.3088 84.0428 67.3584 83.7315 67.399 83.4194C67.3611 83.7315 67.3142 84.0428 67.2582 84.3532C67.3936 84.3691 67.5289 84.3849 67.6643 84.4007L72.1782 84.9503L76.6876 85.5324L78.9409 85.8349L81.1925 86.1524L78.9319 85.9035L76.6732 85.6406L72.1593 85.091L67.6499 84.5089C67.5136 84.4904 67.3773 84.4719 67.2411 84.4535C67.1445 84.9749 67.0209 85.4911 66.8684 86.0003C66.8566 86.0425 66.8449 86.0847 66.8314 86.126C66.8196 86.1647 66.807 86.2025 66.7953 86.2412C66.5291 87.0845 66.1807 87.9041 65.7385 88.6753C65.2738 89.4781 64.7071 90.2396 63.9743 90.8376C63.6097 91.1366 63.2009 91.3916 62.7497 91.5569C62.3021 91.7293 61.8094 91.7943 61.3266 91.7486C60.8456 91.6915 60.3764 91.5235 59.9748 91.2597C59.5678 91.0012 59.2213 90.6635 58.928 90.2915C58.3414 89.5449 57.9461 88.6761 57.6763 87.7827C57.411 86.8875 57.2585 85.9625 57.1998 85.0339C57.1394 84.1053 57.1728 83.1731 57.2784 82.2489C57.3966 81.3265 57.5888 80.4128 57.8703 79.5238C58.1501 78.6339 58.5201 77.7704 58.9939 76.9596C59.4694 76.1524 60.0632 75.397 60.8131 74.8052C61.1867 74.5106 61.6046 74.2609 62.063 74.1026C62.472 73.9744 62.2334 74.0366 62.7847 73.9406H63.5256ZM63.1332 74.0648C62.7793 74.0677 62.4508 74.146 62.1225 74.2617C61.6903 74.42 61.295 74.6662 60.9395 74.9564C60.2257 75.5394 59.6689 76.2878 59.2104 77.0792C58.2981 78.6744 57.7864 80.4709 57.568 82.2823C57.4561 83.1898 57.4173 84.1061 57.4697 85.0189C57.5193 85.9308 57.6619 86.8383 57.9155 87.7159C58.1699 88.59 58.5327 89.4456 59.0868 90.1746C59.362 90.5386 59.6878 90.8675 60.0704 91.1199C60.4477 91.3793 60.888 91.5455 61.3438 91.6079C61.4575 91.6211 61.5721 91.6273 61.6867 91.6273C62.0332 91.6273 62.3815 91.5683 62.7091 91.4488C63.1477 91.2966 63.5529 91.0566 63.9166 90.769C64.6475 90.193 65.2323 89.4509 65.7015 88.655C66.1473 87.8918 66.5011 87.0766 66.7727 86.2377C66.7853 86.199 66.7989 86.1594 66.8115 86.1199C66.8241 86.0794 66.8359 86.0381 66.8485 85.9976C67.0046 85.4894 67.1319 84.9741 67.2329 84.4526C66.5534 84.362 65.8739 84.2706 65.1953 84.1774C65.0735 84.7059 64.9038 85.2247 64.6782 85.7198C64.6457 85.7927 64.6141 85.8657 64.5789 85.9378C64.5176 86.0609 64.4526 86.1823 64.384 86.3019C64.1088 86.7776 63.7686 87.2261 63.3327 87.5787C62.9067 87.9305 62.3436 88.1714 61.7697 88.1072C61.1958 88.0439 60.7021 87.6834 60.3673 87.2446C60.0235 86.804 59.7952 86.2896 59.6373 85.7628C59.325 84.7041 59.2763 83.5847 59.4026 82.4952C59.5416 81.4065 59.8575 80.3293 60.4152 79.3708C60.6958 78.8951 61.0405 78.4466 61.48 78.0966C61.9114 77.7466 62.4781 77.5092 63.052 77.5778C63.6251 77.6455 64.1142 78.0087 64.4445 78.4484C64.7829 78.8898 65.0067 79.4033 65.1601 79.9292C65.2738 80.3249 65.3505 80.7303 65.3947 81.1383L67.5046 81.3819C67.501 81.1409 67.4919 80.9 67.4766 80.6591C67.4188 79.7401 67.2672 78.8247 67.0055 77.941C66.7402 77.0607 66.3495 76.2051 65.7773 75.4788C65.4922 75.1165 65.1565 74.7911 64.7666 74.5431C64.3804 74.289 63.9346 74.1316 63.478 74.0771L63.1332 74.0648Z" fill="black" stroke="#F7F0F0" stroke-width="0.0989793"/>
<path d="M67.501 81.9531C67.4891 82.4427 67.4544 82.932 67.3985 83.4191C67.3583 83.7315 67.309 84.0429 67.2512 84.3528C66.5705 84.2727 65.8896 84.1937 65.2088 84.1166C65.2772 83.808 65.3311 83.4967 65.3688 83.1843C65.4288 82.698 65.4516 82.2053 65.4337 81.7144L67.501 81.9531ZM65.1948 84.1771C65.874 84.2705 66.5535 84.3617 67.2329 84.4525C67.1323 84.9737 67.0045 85.4897 66.8488 85.9978L64.6786 85.7201C64.9039 85.2244 65.0736 84.7062 65.1948 84.1771V84.1771ZM64.5786 85.9373L66.7728 86.2381C66.5008 87.0769 66.1476 87.8914 65.7014 88.6551C65.2323 89.4512 64.6474 90.1934 63.917 90.7694C63.5525 91.0566 63.1476 91.297 62.7089 91.4487C62.2728 91.6078 61.8015 91.6597 61.344 91.6081C60.8879 91.5452 60.4477 91.3795 60.0701 91.12C59.688 90.8675 59.362 90.5382 59.0867 90.1746C58.533 89.4453 58.1696 88.5904 57.9153 87.7159C57.6624 86.8385 57.5198 85.9306 57.4696 85.0188C57.417 84.1063 57.4562 83.1901 57.5676 82.2826C57.7864 80.4709 58.2987 78.6743 59.2102 77.0797C59.6686 76.2882 60.226 75.5394 60.9398 74.9569C61.2947 74.6659 61.6904 74.4201 62.1227 74.2616C62.5519 74.0956 63.019 74.0346 63.4778 74.0775C63.9348 74.1315 64.3807 74.2893 64.7662 74.5432C65.1565 74.7908 65.4924 75.1168 65.7775 75.479C66.3497 76.2055 66.7401 77.0603 67.0055 77.9411C67.2675 78.8251 67.4186 79.7398 67.4763 80.659C67.4919 80.8996 67.501 81.1406 67.5043 81.3817L65.3944 81.138C65.35 80.7299 65.2736 80.3253 65.1602 79.9287C65.0065 79.403 64.7833 78.8893 64.4447 78.4481C64.1142 78.0086 63.6251 77.6456 63.0518 77.5775C62.4785 77.5086 61.9114 77.7463 61.4804 78.0968C61.0406 78.4469 60.6956 78.8947 60.4151 79.3707C59.8578 80.3292 59.5412 81.4059 59.4024 82.4947C59.2767 83.5849 59.3255 84.704 59.6373 85.7627C59.7957 86.2896 60.0238 86.8036 60.3671 87.2443C60.702 87.6831 61.1962 88.0435 61.7701 88.1071C62.3439 88.1717 62.9065 87.9304 63.3331 87.5783C63.7683 87.2265 64.1088 86.778 64.3844 86.3019C64.4528 86.182 64.5175 86.0606 64.5786 85.9373V85.9373ZM106.724 89.8813C106.572 89.7224 106.445 89.5399 106.347 89.3454C106.264 89.178 106.198 89.0037 106.148 88.8253L106.57 88.8528C106.597 88.9762 106.627 89.099 106.666 89.2196C106.787 89.5882 106.956 89.9458 107.271 90.2314C107.064 90.1699 106.879 90.0363 106.724 89.8813V89.8813ZM106.024 88.0986C106.008 87.7609 106.035 87.4175 106.13 87.0868L106.511 87.1114C106.455 87.4261 106.444 87.7516 106.461 88.0748C106.471 88.2388 106.49 88.4022 106.516 88.5648L106.08 88.5366C106.052 88.3917 106.034 88.2454 106.024 88.0986V88.0986ZM105.38 89.5927C105.228 89.4338 105.101 89.2512 105.003 89.0568C104.952 88.9545 104.907 88.8498 104.869 88.743L105.276 88.7693C105.291 88.8233 105.304 88.8776 105.321 88.9311C105.443 89.2996 105.612 89.6573 105.927 89.9429C105.719 89.8815 105.535 89.7477 105.38 89.5927ZM104.68 87.8102C104.666 87.5397 104.681 87.2653 104.736 86.9968L105.137 87.0227C105.108 87.2746 105.103 87.5311 105.116 87.7862C105.131 88.0191 105.162 88.2512 105.208 88.4803L104.78 88.4527C104.726 88.242 104.694 88.0264 104.68 87.8102V87.8102ZM104.116 89.4321C103.964 89.2731 103.838 89.0907 103.739 88.8962C103.701 88.8201 103.668 88.7422 103.637 88.6635L104.035 88.689C104.043 88.7161 104.049 88.7437 104.058 88.7705C104.179 89.139 104.348 89.4966 104.663 89.7821C104.456 89.7205 104.272 89.5872 104.116 89.4321ZM103.417 87.6496C103.404 87.4053 103.416 87.1578 103.459 86.9144L103.866 86.9407C103.844 87.1671 103.841 87.397 103.853 87.6256C103.87 87.8858 103.905 88.1448 103.961 88.3996L103.539 88.3726C103.472 88.1364 103.432 87.8935 103.417 87.6496ZM102.943 89.4267C102.79 89.2677 102.664 89.0853 102.566 88.8908C102.516 88.7913 102.473 88.6893 102.435 88.586L102.842 88.612C102.855 88.6631 102.868 88.7145 102.884 88.7652C103.006 89.1337 103.174 89.4911 103.49 89.7766C103.282 89.7152 103.098 89.5817 102.943 89.4267ZM102.243 87.644C102.229 87.3765 102.243 87.1049 102.297 86.8394L102.699 86.8652C102.671 87.1143 102.666 87.3679 102.679 87.6201C102.694 87.8561 102.726 88.0911 102.773 88.3232L102.345 88.2956C102.29 88.082 102.257 87.8633 102.243 87.644V87.644ZM101.569 89.275C101.417 89.1161 101.291 88.9338 101.192 88.7393C101.153 88.6605 101.119 88.5802 101.087 88.4988L101.486 88.5246C101.495 88.5541 101.502 88.5841 101.511 88.6134C101.632 88.9822 101.801 89.3397 102.116 89.6252C101.909 89.5637 101.725 89.4301 101.569 89.275V89.275ZM100.87 87.4924C100.857 87.2458 100.869 86.9957 100.913 86.7501L101.319 86.7762C101.297 87.0053 101.294 87.2374 101.306 87.4686C101.323 87.7262 101.358 87.9829 101.413 88.2353L100.99 88.208C100.924 87.9743 100.885 87.7338 100.87 87.4924V87.4924ZM100.194 89.0705C100.042 88.9114 99.9145 88.7291 99.8165 88.5346C99.7966 88.4944 99.7782 88.4539 99.7604 88.4131L100.145 88.4379C100.266 88.7963 100.434 89.1426 100.741 89.4205C100.533 89.359 100.349 89.2255 100.194 89.0705V89.0705ZM98.3586 94.2736C98.3586 94.2736 97.6388 93.5832 97.8474 92.7996C97.9228 92.7931 97.9358 92.7466 97.9022 92.6792L99.2746 92.6103C99.4979 93.0731 99.6337 94.3672 100.201 94.3802L98.3586 94.2736ZM97.6122 90.8615L95.6624 90.8593C95.6839 90.4035 95.8486 89.9059 95.9782 89.6208L95.9832 89.6097L97.9866 89.5603C97.8514 89.9944 97.709 90.4496 97.6122 90.8615V90.8615ZM96.9161 92.018C96.7333 91.9509 96.5341 91.8972 96.3253 91.8695C96.0787 91.8367 95.915 91.726 95.8113 91.5691L97.4971 91.5709C97.49 91.7008 97.4946 91.8181 97.5154 91.9178C97.5206 91.943 97.5289 91.9638 97.5355 91.9869L96.9161 92.018ZM94.3821 80.2273C94.1447 80.5135 93.933 80.8189 93.7469 81.1394C93.5601 81.4591 93.3896 81.7879 93.2421 82.1275C92.9494 82.8068 92.71 83.5097 92.539 84.2296C92.3607 84.9472 92.2341 85.6785 92.175 86.4119C92.1416 86.7786 92.1252 87.1428 92.1354 87.5085C92.1427 87.8817 92.1631 88.2537 92.1813 88.6256C92.2219 89.3692 92.3036 90.1087 92.4308 90.8386C92.5662 91.5659 92.7489 92.2882 93.0601 92.9594C93.3638 93.6309 93.8138 94.2517 94.4515 94.6886C94.1005 94.5263 93.7816 94.2923 93.5052 94.0171C93.2282 93.7419 92.998 93.4228 92.7996 93.0887C92.4095 92.4142 92.155 91.6762 91.975 90.9305C91.788 90.1844 91.6909 89.424 91.6172 88.6649C91.5825 88.2854 91.5651 87.9047 91.5506 87.5246C91.5349 87.1372 91.5475 86.7473 91.5778 86.3633C91.7241 84.8297 92.1144 83.3187 92.8177 81.9353C93.1685 81.2458 93.6097 80.5921 94.1621 80.0366C94.7145 79.4863 95.3969 79.0394 96.1522 78.8497C95.4443 79.1628 94.8508 79.6508 94.3821 80.2273V80.2273ZM90.1838 76.7634C89.8379 77.1805 89.5289 77.6261 89.258 78.0928C88.986 78.5587 88.7371 79.038 88.5222 79.5327C88.0954 80.5229 87.7467 81.5474 87.4975 82.5965C87.238 83.6422 87.0529 84.7082 86.9673 85.7767C86.9198 86.3114 86.899 86.8423 86.9136 87.3753C86.9228 87.9189 86.9495 88.4613 86.9765 89.0034C87.0352 90.087 87.1543 91.1651 87.34 92.2287C87.4337 92.7605 87.5585 93.2854 87.7027 93.8044C87.8472 94.3235 88.0317 94.8304 88.2569 95.3194C88.6996 96.2981 89.3554 97.2029 90.2848 97.8396C89.7732 97.603 89.3085 97.2622 88.9059 96.8611C88.5017 96.46 88.1664 95.9948 87.8774 95.5079C87.3086 94.525 86.9378 93.4494 86.6755 92.3626C86.4029 91.2751 86.2617 90.1668 86.1542 89.0607C86.104 88.5074 86.0752 87.9528 86.0527 87.3987C86.0297 86.8341 86.0512 86.2657 86.0965 85.7063C86.3099 83.4712 86.8786 81.269 87.9034 79.2527C88.415 78.2478 89.0579 77.2953 89.863 76.4853C90.6682 75.6835 91.6627 75.0322 92.7636 74.7558C91.7316 75.2122 90.8667 75.9234 90.1838 76.7634V76.7634ZM85.6298 96.6366C85.2257 96.2356 84.8904 95.7705 84.6013 95.2835C84.0326 94.3005 83.6618 93.2249 83.3994 92.1381C83.1266 91.0505 82.9855 89.9423 82.8779 88.8363C82.8279 88.2829 82.7988 87.7283 82.7765 87.1743C82.7537 86.6096 82.775 86.0412 82.8204 85.4816C83.0338 83.2466 83.6025 81.0446 84.6275 79.0282C85.1389 78.0233 85.7818 77.0708 86.5867 76.2608C87.3922 75.4589 88.3867 74.8077 89.4872 74.5313C88.4555 74.9876 87.5905 75.6989 86.9077 76.5391C86.5617 76.956 86.253 77.4015 85.982 77.8684C85.7098 78.334 85.4611 78.8135 85.2461 79.3083C84.8194 80.2982 84.4706 81.323 84.2214 82.372C83.9619 83.4177 83.7768 84.4836 83.6911 85.5522C83.6437 86.0869 83.6229 86.618 83.6375 87.1507C83.6467 87.6945 83.6732 88.2368 83.7003 88.7789C83.7592 89.8625 83.8781 90.9405 84.0638 92.0043C84.1576 92.536 84.2822 93.0609 84.4269 93.5797C84.5713 94.0989 84.7557 94.6058 84.9808 95.095C85.4235 96.0736 86.0793 96.9782 87.0088 97.615C86.4971 97.3785 86.0324 97.0377 85.6298 96.6366V96.6366ZM96.5963 87.3899L98.3448 87.3631C98.3558 87.5388 98.3612 87.747 98.3615 88.0092C98.3617 88.213 98.2964 88.5062 98.2017 88.845L96.2998 88.8921C96.4887 88.4223 96.6395 87.9042 96.5963 87.3899ZM97.8818 85.8228C98.0387 86.2017 98.1497 86.4215 98.2251 86.6549L96.4 86.683C96.0168 85.8233 95.587 85.0441 95.7382 84.3364L97.7802 84.2358C97.6434 84.6735 97.6291 85.2128 97.8818 85.8228ZM96.3754 83.4049C96.703 83.1474 96.9953 82.9173 97.2504 82.7052L99.7289 82.5987C99.5513 82.872 99.2356 82.9604 98.7906 83.0484C98.6377 83.0787 98.3948 83.2399 98.1753 83.5059L96.1508 83.6056C96.2173 83.5381 96.2912 83.471 96.3754 83.4049ZM98.3727 81.2773L100.078 81.1724C100.007 81.417 99.9576 81.6653 99.9216 81.88L98.0299 81.9613C98.2217 81.7286 98.3394 81.5069 98.3727 81.2773ZM99.9302 87.2638C99.9494 87.5614 99.9914 87.8582 100.063 88.148L99.6495 88.1216C99.5622 87.851 99.5115 87.5699 99.4941 87.2877C99.4834 87.0794 99.4897 86.8684 99.5185 86.66L99.9317 86.6865C99.9192 86.8781 99.9201 87.0715 99.9302 87.2638V87.2638ZM100.686 85.2311C100.375 85.3417 100.205 85.5787 100.101 85.844L99.7839 85.8235C99.8595 85.6893 99.9527 85.563 100.068 85.4561C100.238 85.3029 100.471 85.2094 100.686 85.2311ZM101.444 85.6607C101.614 85.5077 101.847 85.414 102.062 85.4359C101.796 85.5305 101.634 85.7179 101.527 85.9361L101.227 85.9166C101.289 85.8244 101.361 85.7378 101.444 85.6607ZM102.817 85.8123C102.987 85.6593 103.22 85.5657 103.435 85.5873C103.194 85.673 103.04 85.8353 102.933 86.027L102.645 86.0082C102.697 85.9388 102.753 85.8721 102.817 85.8123ZM103.991 85.8177C104.16 85.6646 104.394 85.571 104.609 85.5927C104.34 85.6883 104.177 85.8793 104.071 86.1001L103.769 86.0808C103.832 85.9857 103.906 85.8965 103.991 85.8177V85.8177ZM105.254 85.9783C105.424 85.8254 105.657 85.7318 105.872 85.7535C105.635 85.8377 105.482 85.9968 105.375 86.1845L105.089 86.1661C105.139 86.0996 105.193 86.0357 105.254 85.9783V85.9783ZM107.217 86.042C107.067 86.0953 106.95 86.1788 106.857 86.2801L106.603 86.2638C106.772 86.1126 107.003 86.0203 107.217 86.042ZM61.1999 72.1646C60.6506 72.3722 60.1302 72.6453 59.6595 72.983C58.7121 73.654 57.9671 74.5575 57.3863 75.5418C56.8106 76.5324 56.3783 77.602 56.0572 78.7036C55.8969 79.2546 55.7542 79.8115 55.6334 80.3742C55.5734 80.656 55.5171 80.9387 55.4628 81.2235C55.4057 81.5104 55.3651 81.7796 55.3319 82.0626C55.2071 83.1869 55.257 84.3375 55.4327 85.4629C55.6024 86.5903 55.928 87.6958 56.4141 88.7279C56.9065 89.7538 57.5845 90.7077 58.4894 91.4298C58.9391 91.7926 59.4464 92.0879 59.9868 92.3152C60.5278 92.5415 61.1027 92.6976 61.6919 92.7937C61.0961 92.7572 60.5004 92.6529 59.9286 92.462C59.3562 92.273 58.811 91.997 58.3151 91.6508C57.8221 91.3005 57.381 90.8815 56.9951 90.4202C56.609 89.9585 56.2845 89.4505 56.0056 88.9224C55.4464 87.8643 55.097 86.714 54.8882 85.5488C54.689 84.3805 54.6312 83.1893 54.7531 82.0011C54.7892 81.7072 54.8386 81.4019 54.8975 81.1186C54.9544 80.8325 55.0138 80.5453 55.0773 80.2587C55.2071 79.6856 55.3509 79.1136 55.5301 78.5507C55.8903 77.4273 56.3498 76.3217 56.9978 75.315C57.6367 74.3085 58.4717 73.3982 59.4989 72.7541C60.0133 72.4366 60.5688 72.1847 61.1473 72.0166C61.7255 71.8461 62.3229 71.7571 62.9191 71.7315C62.328 71.8164 61.7495 71.9572 61.1999 72.1646V72.1646ZM54.7838 91.7706C54.3739 91.4275 54.0254 91.0182 53.719 90.5843C53.1131 89.7088 52.6844 88.7295 52.3642 87.7288C52.0378 86.7273 51.8307 85.696 51.6733 84.6617C51.5968 84.1439 51.5434 83.6237 51.4999 83.1031L51.4707 82.7122L51.4573 82.5168L51.4505 82.3085C51.4501 82.0334 51.4689 81.767 51.4962 81.5023C51.6233 80.4487 51.8623 79.4243 52.175 78.4199C52.5006 77.4208 52.8852 76.4362 53.3931 75.5083C53.8888 74.5763 54.5025 73.6963 55.251 72.9361C56.0062 72.1879 56.9284 71.571 57.9615 71.299C56.9719 71.6908 56.1368 72.3481 55.4612 73.123C54.786 73.902 54.2455 74.7836 53.7984 75.7053C53.3529 76.6284 52.9897 77.5906 52.7022 78.5728C52.416 79.5541 52.1851 80.5574 52.0754 81.5622C52.0484 81.8123 52.0282 82.0627 52.0268 82.3054L52.031 82.4854L52.0422 82.6774L52.0675 83.0612C52.104 83.5728 52.1576 84.0828 52.2204 84.5912C52.3425 85.609 52.5349 86.6175 52.8007 87.6052C53.0754 88.5887 53.4321 89.5564 53.9607 90.4351C54.4783 91.3155 55.206 92.0954 56.149 92.5856C55.653 92.3973 55.1905 92.116 54.7838 91.7706V91.7706ZM47.1908 79.6094C47.0686 79.8923 46.9863 80.1885 46.9585 80.49C46.9252 80.7911 46.9474 81.0964 47.0142 81.3962C47.0827 81.6959 47.2017 81.9875 47.3528 82.2785C47.1056 82.059 46.9142 81.7737 46.797 81.4585C46.6769 81.1436 46.6372 80.7989 46.6686 80.4622C46.7049 80.1259 46.8113 79.7963 46.9886 79.5083C47.1628 79.2204 47.4045 78.9699 47.6955 78.8073C47.484 79.0599 47.3154 79.3266 47.1908 79.6094V79.6094ZM46.0582 79.4627C45.9758 79.7524 45.9434 80.0571 45.9468 80.3629C45.9463 80.6692 45.9782 80.9773 46.0312 81.2825C46.0602 81.4344 46.0917 81.5869 46.1386 81.7352C46.185 81.8832 46.2357 82.032 46.337 82.1596C46.1892 82.0773 46.0922 81.9298 46.0068 81.7898C45.9251 81.6451 45.8607 81.4924 45.8104 81.3356C45.7078 81.0222 45.6603 80.6941 45.6557 80.3637C45.6579 80.0341 45.706 79.6969 45.8456 79.3867C45.9786 79.079 46.23 78.7967 46.5514 78.6957C46.2929 78.9021 46.1432 79.1744 46.0582 79.4627V79.4627ZM44.8879 80.8129C44.9001 80.9735 44.9234 81.1327 44.9524 81.2913C45.0172 81.6069 45.112 81.9182 45.3051 82.2007C45.02 81.9985 44.8412 81.6728 44.7323 81.3471C44.622 81.0172 44.5769 80.6695 44.584 80.3242C44.5963 79.9792 44.6536 79.6322 44.7882 79.3083C44.9183 78.9898 45.1364 78.673 45.457 78.5256C45.2125 78.7688 45.0886 79.0705 45.0027 79.3782C44.9221 79.6882 44.8811 80.009 44.875 80.3305L44.8733 80.5719L44.8879 80.8129ZM107.683 85.7808C107.662 85.7587 107.422 85.6775 107.079 85.5951C106.967 85.5679 106.837 85.7152 106.707 85.6902C106.556 85.661 106.401 85.4601 106.237 85.439C106.048 85.4152 105.856 85.5554 105.669 85.5241C105.534 85.5013 105.316 85.3428 105.191 85.3218C105.058 85.2995 105.012 85.2913 104.883 85.2693C104.701 85.2382 104.529 85.3499 104.363 85.3205C104.174 85.2867 103.994 85.1119 103.843 85.0822C103.682 85.0512 103.554 85.18 103.456 85.1558C103.357 85.1316 103.288 84.9537 103.271 84.9389C103.119 84.7999 103.546 84.2329 103.546 84.2329C103.768 83.6337 103.374 82.3357 103.122 82.1962C102.87 82.0568 102.48 82.5896 102.083 82.2335C101.86 82.0325 101.774 79.9482 100.944 80.064C100.717 80.0956 100.541 80.2401 100.4 80.4417L98.6335 80.5503C98.8662 80.3196 99.2618 80.1952 99.8336 80.1144L100.944 80.064L100.222 79.9293C100.166 79.2132 98.306 76.6146 97.0565 76.6804C96.2742 75.2419 93.7274 73.7175 91.668 74.5349C88.158 72.4286 83.2696 76.4359 82.1378 82.0667L68.2482 80.5551C68.2902 72.187 62.7269 70.2127 60.673 71.2944C59.7564 70.4617 56.2415 69.9977 53.9156 72.6297C51.2226 73.2586 50.6658 75.1065 50.6658 75.1065C50.6658 75.1065 49.2471 75.1936 48.7622 75.4828C48.2775 75.7717 48.3883 77.9704 48.0083 78.287C47.6283 78.6034 45.5873 78.1636 45.5873 78.1636C45.5873 78.1636 44.3188 78.4127 44.1668 80.3012C44.0108 82.2404 45.1544 82.6664 45.1544 82.6664L47.1354 82.9009C47.1354 82.9009 47.6416 83.4285 47.4243 84.0507C47.207 84.673 47.6306 86.7015 47.6306 86.7015C47.6306 86.7015 47.8814 87.1607 49.2987 86.9337C49.0462 86.3464 48.8628 85.7284 48.7478 85.1C48.6495 84.5888 48.5972 84.07 48.5693 83.5509C48.5442 83.031 48.5601 82.5104 48.5969 81.9922C48.6813 80.9564 48.8716 79.9276 49.1961 78.9377C49.3564 78.4425 49.5534 77.9576 49.7961 77.4947C49.9174 77.2631 50.0566 77.0401 50.2099 76.8278C50.3622 76.6157 50.5406 76.4147 50.7606 76.2693C50.5604 76.4386 50.4083 76.6504 50.274 76.8689C50.1414 77.0889 50.024 77.3175 49.9243 77.5537C49.7169 78.0223 49.5521 78.5083 49.4133 79.0003C49.1388 79.9856 48.9645 80.9969 48.887 82.0136C48.8036 83.0298 48.8289 84.0545 48.9722 85.0642C49.044 85.5691 49.1527 86.0694 49.2999 86.5601C49.4408 87.0528 49.6329 87.531 49.8573 87.9981C49.67 87.702 49.506 87.3917 49.3614 87.0722C50.0192 89.2914 51.5098 89.8929 52.0005 90.3276C53.2732 93.4073 56.6239 93.7952 57.6087 93.5282C57.6087 93.5282 59.5688 94.7339 62.5435 93.4943C65.5184 92.2547 67.8562 87.9548 67.6732 86.3615L66.795 86.241C66.5289 87.0843 66.1807 87.9045 65.738 88.6756C65.2737 89.478 64.7076 90.2396 63.9744 90.8381C63.6097 91.1368 63.2008 91.3912 62.7497 91.5565C62.3024 91.7293 61.8099 91.7943 61.3268 91.7484C60.8455 91.6917 60.3762 91.5241 59.9745 91.2593C59.5676 91.001 59.2213 90.6634 58.9282 90.2917C58.3411 89.5452 57.9461 88.6759 57.6764 87.783C57.4107 86.887 57.2587 85.9625 57.2004 85.0342C57.1399 84.1058 57.1726 83.1731 57.2789 82.2491C57.3963 81.3266 57.5892 80.4126 57.8705 79.5234C58.1501 78.6343 58.5201 77.7701 58.9935 76.9595C59.4691 76.1523 60.0627 75.3974 60.8125 74.8055C61.1865 74.5107 61.6049 74.2615 62.0625 74.103C62.5166 73.9371 63.0131 73.8812 63.495 73.936C63.9757 74.0015 64.439 74.1767 64.8327 74.4471C65.2314 74.7107 65.5679 75.0511 65.8508 75.4248C66.4201 76.174 66.7878 77.0433 67.0463 77.9296C67.3028 78.819 67.4466 79.7369 67.4975 80.6579C67.5114 80.8996 67.5185 81.1413 67.52 81.3834L81.673 83.0168L81.6044 83.5805L67.5122 81.9542C67.4965 82.4438 67.4582 82.9327 67.3985 83.4191C67.3608 83.7316 67.3138 84.0433 67.2582 84.3536C67.3936 84.3695 67.529 84.3847 67.6643 84.4007L72.1781 84.9501L76.6876 85.5322L78.9409 85.8347L81.1922 86.152L78.9318 85.9036L76.6733 85.6404L72.1596 85.0907L67.6499 84.5086C67.5136 84.4903 67.3773 84.4718 67.2409 84.4537C67.1442 84.9749 67.0208 85.4914 66.869 86.0004L81.1062 87.8225C81.0479 93.5169 83.6856 99.3821 88.619 97.9726C91.614 99.7464 94.4796 97.8042 94.8821 97.0006C97.6664 96.5709 98.5029 94.4022 98.5029 94.4022C98.5029 94.4022 100.194 94.6714 100.622 94.4661C101.05 94.2608 101.188 92.6645 101.524 91.898C101.86 91.1316 102.451 91.2322 102.693 91.0877C102.936 90.9433 103.106 90.4511 103.077 90.3119C103.048 90.1728 106.254 90.8184 106.52 90.7899C106.787 90.7616 108.2 90.4099 108.39 88.586C108.581 86.762 107.778 85.8827 107.683 85.7808V85.7808ZM63.3223 85.8092C63.1688 85.8505 62.9968 85.8211 62.86 85.7361C62.7211 85.6527 62.6129 85.5302 62.5232 85.4007C62.3468 85.1367 62.2366 84.8399 62.1479 84.5416C62.06 84.2419 62.0067 83.9345 61.9698 83.6262C61.9334 83.3174 61.9162 83.0066 61.9231 82.6948C61.9353 82.3845 61.9678 82.0685 62.0632 81.7668C62.1526 81.4695 62.2638 81.1699 62.4388 80.9052C62.611 80.6401 62.8276 80.3997 63.0897 80.2182C63.3527 80.0391 63.6482 79.91 63.9557 79.8364C63.356 80.0343 62.8354 80.4301 62.5346 80.9609C62.3815 81.2237 62.2725 81.5075 62.1903 81.8023C62.103 82.0917 62.0763 82.3946 62.0687 82.6989C62.0477 83.3074 62.1147 83.9211 62.2564 84.514C62.3301 84.8093 62.4263 85.1028 62.5836 85.3637C62.6609 85.4938 62.7557 85.617 62.8813 85.7045C63.0052 85.7923 63.165 85.835 63.3223 85.8092V85.8092ZM65.422 81.7131L63.1394 81.4496L63.2079 80.8857L65.378 81.1364C65.3306 80.7305 65.2515 80.3287 65.1356 79.9356C64.9787 79.4134 64.7521 78.9044 64.414 78.4705C64.084 78.0383 63.6015 77.6887 63.0458 77.627C62.4901 77.5648 61.9414 77.7982 61.5208 78.145C61.0926 78.4913 60.7549 78.9354 60.4817 79.4075C59.9384 80.3588 59.6336 81.428 59.5034 82.5065C59.3706 83.5846 59.4105 84.6938 59.7107 85.7424C59.8629 86.2638 60.0844 86.7724 60.4179 87.2068C60.7433 87.64 61.2207 87.9921 61.7761 88.058C62.3313 88.1247 62.8842 87.8948 63.3089 87.5496C63.742 87.205 64.0841 86.7617 64.3623 86.2896C64.4301 86.1729 64.4942 86.0543 64.5551 85.9338L64.1031 85.8721L64.0549 85.6402L64.6575 85.7173C64.8871 85.2236 65.0613 84.7057 65.187 84.1759C64.5062 84.0822 63.8256 83.9874 63.1457 83.8888C63.8313 83.9614 64.5164 84.0378 65.2015 84.1156C65.2723 83.8077 65.3288 83.4967 65.3688 83.1843C65.4253 82.6969 65.4437 82.2038 65.422 81.7131" fill="black"/>
<path d="M65.422 81.7131L63.1394 81.4496L63.2079 80.8857L65.378 81.1364C65.3306 80.7305 65.2515 80.3287 65.1356 79.9356C64.9787 79.4134 64.7521 78.9044 64.414 78.4705C64.084 78.0383 63.6015 77.6887 63.0458 77.627C62.4901 77.5648 61.9414 77.7982 61.5208 78.145C61.0926 78.4913 60.7549 78.9354 60.4817 79.4075C59.9384 80.3588 59.6336 81.428 59.5034 82.5065C59.3706 83.5846 59.4105 84.6938 59.7107 85.7424C59.8629 86.2638 60.0844 86.7724 60.4179 87.2068C60.7433 87.64 61.2207 87.9921 61.7761 88.058C62.3313 88.1247 62.8842 87.8948 63.3089 87.5496C63.742 87.205 64.0841 86.7617 64.3623 86.2896C64.4301 86.1729 64.4942 86.0543 64.5551 85.9338L64.1031 85.8721L64.0549 85.6402L64.6575 85.7173C64.8871 85.2236 65.0613 84.7057 65.187 84.1759C64.5062 84.0822 63.8256 83.9874 63.1457 83.8888C63.8313 83.9614 64.5164 84.0378 65.2015 84.1156C65.2723 83.8077 65.3288 83.4967 65.3688 83.1843C65.4253 82.6969 65.4437 82.2038 65.422 81.7131M67.501 81.9531C67.4891 82.4427 67.4544 82.932 67.3985 83.4191C67.3583 83.7315 67.309 84.0429 67.2512 84.3528C66.5705 84.2727 65.8896 84.1937 65.2088 84.1166C65.2772 83.808 65.3311 83.4967 65.3688 83.1843C65.4288 82.698 65.4516 82.2053 65.4337 81.7144L67.501 81.9531ZM65.1948 84.1771C65.874 84.2705 66.5535 84.3617 67.2329 84.4525C67.1323 84.9737 67.0045 85.4897 66.8488 85.9978L64.6786 85.7201C64.9039 85.2244 65.0736 84.7062 65.1948 84.1771V84.1771ZM64.5786 85.9373L66.7728 86.2381C66.5008 87.0769 66.1476 87.8914 65.7014 88.6551C65.2323 89.4512 64.6474 90.1934 63.917 90.7694C63.5525 91.0566 63.1476 91.297 62.7089 91.4487C62.2728 91.6078 61.8015 91.6597 61.344 91.6081C60.8879 91.5452 60.4477 91.3795 60.0701 91.12C59.688 90.8675 59.362 90.5382 59.0867 90.1746C58.533 89.4453 58.1696 88.5904 57.9153 87.7159C57.6624 86.8385 57.5198 85.9306 57.4696 85.0188C57.417 84.1063 57.4562 83.1901 57.5676 82.2826C57.7864 80.4709 58.2987 78.6743 59.2102 77.0797C59.6686 76.2882 60.226 75.5394 60.9398 74.9569C61.2947 74.6659 61.6904 74.4201 62.1227 74.2616C62.5519 74.0956 63.019 74.0346 63.4778 74.0775C63.9348 74.1315 64.3807 74.2893 64.7662 74.5432C65.1565 74.7908 65.4924 75.1168 65.7775 75.479C66.3497 76.2055 66.7401 77.0603 67.0055 77.9411C67.2675 78.8251 67.4186 79.7398 67.4763 80.659C67.4919 80.8996 67.501 81.1406 67.5043 81.3817L65.3944 81.138C65.35 80.7299 65.2736 80.3253 65.1602 79.9287C65.0065 79.403 64.7833 78.8893 64.4447 78.4481C64.1142 78.0086 63.6251 77.6456 63.0518 77.5775C62.4785 77.5086 61.9114 77.7463 61.4804 78.0968C61.0406 78.4469 60.6956 78.8947 60.4151 79.3707C59.8578 80.3292 59.5412 81.4059 59.4024 82.4947C59.2767 83.5849 59.3255 84.704 59.6373 85.7627C59.7957 86.2896 60.0238 86.8036 60.3671 87.2443C60.702 87.6831 61.1962 88.0435 61.7701 88.1071C62.3439 88.1717 62.9065 87.9304 63.3331 87.5783C63.7683 87.2265 64.1088 86.778 64.3844 86.3019C64.4528 86.182 64.5175 86.0606 64.5786 85.9373V85.9373ZM106.724 89.8813C106.572 89.7224 106.445 89.5399 106.347 89.3454C106.264 89.178 106.198 89.0037 106.148 88.8253L106.57 88.8528C106.597 88.9762 106.627 89.099 106.666 89.2196C106.787 89.5882 106.956 89.9458 107.271 90.2314C107.064 90.1699 106.879 90.0363 106.724 89.8813V89.8813ZM106.024 88.0986C106.008 87.7609 106.035 87.4175 106.13 87.0868L106.511 87.1114C106.455 87.4261 106.444 87.7516 106.461 88.0748C106.471 88.2388 106.49 88.4022 106.516 88.5648L106.08 88.5366C106.052 88.3917 106.034 88.2454 106.024 88.0986V88.0986ZM105.38 89.5927C105.228 89.4338 105.101 89.2512 105.003 89.0568C104.952 88.9545 104.907 88.8498 104.869 88.743L105.276 88.7693C105.291 88.8233 105.304 88.8776 105.321 88.9311C105.443 89.2996 105.612 89.6573 105.927 89.9429C105.719 89.8815 105.535 89.7477 105.38 89.5927ZM104.68 87.8102C104.666 87.5397 104.681 87.2653 104.736 86.9968L105.137 87.0227C105.108 87.2746 105.103 87.5311 105.116 87.7862C105.131 88.0191 105.162 88.2512 105.208 88.4803L104.78 88.4527C104.726 88.242 104.694 88.0264 104.68 87.8102V87.8102ZM104.116 89.4321C103.964 89.2731 103.838 89.0907 103.739 88.8962C103.701 88.8201 103.668 88.7422 103.637 88.6635L104.035 88.689C104.043 88.7161 104.049 88.7437 104.058 88.7705C104.179 89.139 104.348 89.4966 104.663 89.7821C104.456 89.7205 104.272 89.5872 104.116 89.4321ZM103.417 87.6496C103.404 87.4053 103.416 87.1578 103.459 86.9144L103.866 86.9407C103.844 87.1671 103.841 87.397 103.853 87.6256C103.87 87.8858 103.905 88.1448 103.961 88.3996L103.539 88.3726C103.472 88.1364 103.432 87.8935 103.417 87.6496ZM102.943 89.4267C102.79 89.2677 102.664 89.0853 102.566 88.8908C102.516 88.7913 102.473 88.6893 102.435 88.586L102.842 88.612C102.855 88.6631 102.868 88.7145 102.884 88.7652C103.006 89.1337 103.174 89.4911 103.49 89.7766C103.282 89.7152 103.098 89.5817 102.943 89.4267ZM102.243 87.644C102.229 87.3765 102.243 87.1049 102.297 86.8394L102.699 86.8652C102.671 87.1143 102.666 87.3679 102.679 87.6201C102.694 87.8561 102.726 88.0911 102.773 88.3232L102.345 88.2956C102.29 88.082 102.257 87.8633 102.243 87.644V87.644ZM101.569 89.275C101.417 89.1161 101.291 88.9338 101.192 88.7393C101.153 88.6605 101.119 88.5802 101.087 88.4988L101.486 88.5246C101.495 88.5541 101.502 88.5841 101.511 88.6134C101.632 88.9822 101.801 89.3397 102.116 89.6252C101.909 89.5637 101.725 89.4301 101.569 89.275V89.275ZM100.87 87.4924C100.857 87.2458 100.869 86.9957 100.913 86.7501L101.319 86.7762C101.297 87.0053 101.294 87.2374 101.306 87.4686C101.323 87.7262 101.358 87.9829 101.413 88.2353L100.99 88.208C100.924 87.9743 100.885 87.7338 100.87 87.4924V87.4924ZM100.194 89.0705C100.042 88.9114 99.9145 88.7291 99.8165 88.5346C99.7966 88.4944 99.7782 88.4539 99.7604 88.4131L100.145 88.4379C100.266 88.7963 100.434 89.1426 100.741 89.4205C100.533 89.359 100.349 89.2255 100.194 89.0705V89.0705ZM98.3586 94.2736C98.3586 94.2736 97.6388 93.5832 97.8474 92.7996C97.9228 92.7931 97.9358 92.7466 97.9022 92.6792L99.2746 92.6103C99.4979 93.0731 99.6337 94.3672 100.201 94.3802L98.3586 94.2736ZM97.6122 90.8615L95.6624 90.8593C95.6839 90.4035 95.8486 89.9059 95.9782 89.6208L95.9832 89.6097L97.9866 89.5603C97.8514 89.9944 97.709 90.4496 97.6122 90.8615V90.8615ZM96.9161 92.018C96.7333 91.9509 96.5341 91.8972 96.3253 91.8695C96.0787 91.8367 95.915 91.726 95.8113 91.5691L97.4971 91.5709C97.49 91.7008 97.4946 91.8181 97.5154 91.9178C97.5206 91.943 97.5289 91.9638 97.5355 91.9869L96.9161 92.018ZM94.3821 80.2273C94.1447 80.5135 93.933 80.8189 93.7469 81.1394C93.5601 81.4591 93.3896 81.7879 93.2421 82.1275C92.9494 82.8068 92.71 83.5097 92.539 84.2296C92.3607 84.9472 92.2341 85.6785 92.175 86.4119C92.1416 86.7786 92.1252 87.1428 92.1354 87.5085C92.1427 87.8817 92.1631 88.2537 92.1813 88.6256C92.2219 89.3692 92.3036 90.1087 92.4308 90.8386C92.5662 91.5659 92.7489 92.2882 93.0601 92.9594C93.3638 93.6309 93.8138 94.2517 94.4515 94.6886C94.1005 94.5263 93.7816 94.2923 93.5052 94.0171C93.2282 93.7419 92.998 93.4228 92.7996 93.0887C92.4095 92.4142 92.155 91.6762 91.975 90.9305C91.788 90.1844 91.6909 89.424 91.6172 88.6649C91.5825 88.2854 91.5651 87.9047 91.5506 87.5246C91.5349 87.1372 91.5475 86.7473 91.5778 86.3633C91.7241 84.8297 92.1144 83.3187 92.8177 81.9353C93.1685 81.2458 93.6097 80.5921 94.1621 80.0366C94.7145 79.4863 95.3969 79.0394 96.1522 78.8497C95.4443 79.1628 94.8508 79.6508 94.3821 80.2273V80.2273ZM90.1838 76.7634C89.8379 77.1805 89.5289 77.6261 89.258 78.0928C88.986 78.5587 88.7371 79.038 88.5222 79.5327C88.0954 80.5229 87.7467 81.5474 87.4975 82.5965C87.238 83.6422 87.0529 84.7082 86.9673 85.7767C86.9198 86.3114 86.899 86.8423 86.9136 87.3753C86.9228 87.9189 86.9495 88.4613 86.9765 89.0034C87.0352 90.087 87.1543 91.1651 87.34 92.2287C87.4337 92.7605 87.5585 93.2854 87.7027 93.8044C87.8472 94.3235 88.0317 94.8304 88.2569 95.3194C88.6996 96.2981 89.3554 97.2029 90.2848 97.8396C89.7732 97.603 89.3085 97.2622 88.9059 96.8611C88.5017 96.46 88.1664 95.9948 87.8774 95.5079C87.3086 94.525 86.9378 93.4494 86.6755 92.3626C86.4029 91.2751 86.2617 90.1668 86.1542 89.0607C86.104 88.5074 86.0752 87.9528 86.0527 87.3987C86.0297 86.8341 86.0512 86.2657 86.0965 85.7063C86.3099 83.4712 86.8786 81.269 87.9034 79.2527C88.415 78.2478 89.0579 77.2953 89.863 76.4853C90.6682 75.6835 91.6627 75.0322 92.7636 74.7558C91.7316 75.2122 90.8667 75.9234 90.1838 76.7634V76.7634ZM85.6298 96.6366C85.2257 96.2356 84.8904 95.7705 84.6013 95.2835C84.0326 94.3005 83.6618 93.2249 83.3994 92.1381C83.1266 91.0505 82.9855 89.9423 82.8779 88.8363C82.8279 88.2829 82.7988 87.7283 82.7765 87.1743C82.7537 86.6096 82.775 86.0412 82.8204 85.4816C83.0338 83.2466 83.6025 81.0446 84.6275 79.0282C85.1389 78.0233 85.7818 77.0708 86.5867 76.2608C87.3922 75.4589 88.3867 74.8077 89.4872 74.5313C88.4555 74.9876 87.5905 75.6989 86.9077 76.5391C86.5617 76.956 86.253 77.4015 85.982 77.8684C85.7098 78.334 85.4611 78.8135 85.2461 79.3083C84.8194 80.2982 84.4706 81.323 84.2214 82.372C83.9619 83.4177 83.7768 84.4836 83.6911 85.5522C83.6437 86.0869 83.6229 86.618 83.6375 87.1507C83.6467 87.6945 83.6732 88.2368 83.7003 88.7789C83.7592 89.8625 83.8781 90.9405 84.0638 92.0043C84.1576 92.536 84.2822 93.0609 84.4269 93.5797C84.5713 94.0989 84.7557 94.6058 84.9808 95.095C85.4235 96.0736 86.0793 96.9782 87.0088 97.615C86.4971 97.3785 86.0324 97.0377 85.6298 96.6366V96.6366ZM96.5963 87.3899L98.3448 87.3631C98.3558 87.5388 98.3612 87.747 98.3615 88.0092C98.3617 88.213 98.2964 88.5062 98.2017 88.845L96.2998 88.8921C96.4887 88.4223 96.6395 87.9042 96.5963 87.3899ZM97.8818 85.8228C98.0387 86.2017 98.1497 86.4215 98.2251 86.6549L96.4 86.683C96.0168 85.8233 95.587 85.0441 95.7382 84.3364L97.7802 84.2358C97.6434 84.6735 97.6291 85.2128 97.8818 85.8228ZM96.3754 83.4049C96.703 83.1474 96.9953 82.9173 97.2504 82.7052L99.7289 82.5987C99.5513 82.872 99.2356 82.9604 98.7906 83.0484C98.6377 83.0787 98.3948 83.2399 98.1753 83.5059L96.1508 83.6056C96.2173 83.5381 96.2912 83.471 96.3754 83.4049ZM98.3727 81.2773L100.078 81.1724C100.007 81.417 99.9576 81.6653 99.9216 81.88L98.0299 81.9613C98.2217 81.7286 98.3394 81.5069 98.3727 81.2773ZM99.9302 87.2638C99.9494 87.5614 99.9914 87.8582 100.063 88.148L99.6495 88.1216C99.5622 87.851 99.5115 87.5699 99.4941 87.2877C99.4834 87.0794 99.4897 86.8684 99.5185 86.66L99.9317 86.6865C99.9192 86.8781 99.9201 87.0715 99.9302 87.2638V87.2638ZM100.686 85.2311C100.375 85.3417 100.205 85.5787 100.101 85.844L99.7839 85.8235C99.8595 85.6893 99.9527 85.563 100.068 85.4561C100.238 85.3029 100.471 85.2094 100.686 85.2311ZM101.444 85.6607C101.614 85.5077 101.847 85.414 102.062 85.4359C101.796 85.5305 101.634 85.7179 101.527 85.9361L101.227 85.9166C101.289 85.8244 101.361 85.7378 101.444 85.6607ZM102.817 85.8123C102.987 85.6593 103.22 85.5657 103.435 85.5873C103.194 85.673 103.04 85.8353 102.933 86.027L102.645 86.0082C102.697 85.9388 102.753 85.8721 102.817 85.8123ZM103.991 85.8177C104.16 85.6646 104.394 85.571 104.609 85.5927C104.34 85.6883 104.177 85.8793 104.071 86.1001L103.769 86.0808C103.832 85.9857 103.906 85.8965 103.991 85.8177V85.8177ZM105.254 85.9783C105.424 85.8254 105.657 85.7318 105.872 85.7535C105.635 85.8377 105.482 85.9968 105.375 86.1845L105.089 86.1661C105.139 86.0996 105.193 86.0357 105.254 85.9783V85.9783ZM107.217 86.042C107.067 86.0953 106.95 86.1788 106.857 86.2801L106.603 86.2638C106.772 86.1126 107.003 86.0203 107.217 86.042ZM61.1999 72.1646C60.6506 72.3722 60.1302 72.6453 59.6595 72.983C58.7121 73.654 57.9671 74.5575 57.3863 75.5418C56.8106 76.5324 56.3783 77.602 56.0572 78.7036C55.8969 79.2546 55.7542 79.8115 55.6334 80.3742C55.5734 80.656 55.5171 80.9387 55.4628 81.2235C55.4057 81.5104 55.3651 81.7796 55.3319 82.0626C55.2071 83.1869 55.257 84.3375 55.4327 85.4629C55.6024 86.5903 55.928 87.6958 56.4141 88.7279C56.9065 89.7538 57.5845 90.7077 58.4894 91.4298C58.9391 91.7926 59.4464 92.0879 59.9868 92.3152C60.5278 92.5415 61.1027 92.6976 61.6919 92.7937C61.0961 92.7572 60.5004 92.6529 59.9286 92.462C59.3562 92.273 58.811 91.997 58.3151 91.6508C57.8221 91.3005 57.381 90.8815 56.9951 90.4202C56.609 89.9585 56.2845 89.4505 56.0056 88.9224C55.4464 87.8643 55.097 86.714 54.8882 85.5488C54.689 84.3805 54.6312 83.1893 54.7531 82.0011C54.7892 81.7072 54.8386 81.4019 54.8975 81.1186C54.9544 80.8325 55.0138 80.5453 55.0773 80.2587C55.2071 79.6856 55.3509 79.1136 55.5301 78.5507C55.8903 77.4273 56.3498 76.3217 56.9978 75.315C57.6367 74.3085 58.4717 73.3982 59.4989 72.7541C60.0133 72.4366 60.5688 72.1847 61.1473 72.0166C61.7255 71.8461 62.3229 71.7571 62.9191 71.7315C62.328 71.8164 61.7495 71.9572 61.1999 72.1646V72.1646ZM54.7838 91.7706C54.3739 91.4275 54.0254 91.0182 53.719 90.5843C53.1131 89.7088 52.6844 88.7295 52.3642 87.7288C52.0378 86.7273 51.8307 85.696 51.6733 84.6617C51.5968 84.1439 51.5434 83.6237 51.4999 83.1031L51.4707 82.7122L51.4573 82.5168L51.4505 82.3085C51.4501 82.0334 51.4689 81.767 51.4962 81.5023C51.6233 80.4487 51.8623 79.4243 52.175 78.4199C52.5006 77.4208 52.8852 76.4362 53.3931 75.5083C53.8888 74.5763 54.5025 73.6963 55.251 72.9361C56.0062 72.1879 56.9284 71.571 57.9615 71.299C56.9719 71.6908 56.1368 72.3481 55.4612 73.123C54.786 73.902 54.2455 74.7836 53.7984 75.7053C53.3529 76.6284 52.9897 77.5906 52.7022 78.5728C52.416 79.5541 52.1851 80.5574 52.0754 81.5622C52.0484 81.8123 52.0282 82.0627 52.0268 82.3054L52.031 82.4854L52.0422 82.6774L52.0675 83.0612C52.104 83.5728 52.1576 84.0828 52.2204 84.5912C52.3425 85.609 52.5349 86.6175 52.8007 87.6052C53.0754 88.5887 53.4321 89.5564 53.9607 90.4351C54.4783 91.3155 55.206 92.0954 56.149 92.5856C55.653 92.3973 55.1905 92.116 54.7838 91.7706V91.7706ZM47.1908 79.6094C47.0686 79.8923 46.9863 80.1885 46.9585 80.49C46.9252 80.7911 46.9474 81.0964 47.0142 81.3962C47.0827 81.6959 47.2017 81.9875 47.3528 82.2785C47.1056 82.059 46.9142 81.7737 46.797 81.4585C46.6769 81.1436 46.6372 80.7989 46.6686 80.4622C46.7049 80.1259 46.8113 79.7963 46.9886 79.5083C47.1628 79.2204 47.4045 78.9699 47.6955 78.8073C47.484 79.0599 47.3154 79.3266 47.1908 79.6094V79.6094ZM46.0582 79.4627C45.9758 79.7524 45.9434 80.0571 45.9468 80.3629C45.9463 80.6692 45.9782 80.9773 46.0312 81.2825C46.0602 81.4344 46.0917 81.5869 46.1386 81.7352C46.185 81.8832 46.2357 82.032 46.337 82.1596C46.1892 82.0773 46.0922 81.9298 46.0068 81.7898C45.9251 81.6451 45.8607 81.4924 45.8104 81.3356C45.7078 81.0222 45.6603 80.6941 45.6557 80.3637C45.6579 80.0341 45.706 79.6969 45.8456 79.3867C45.9786 79.079 46.23 78.7967 46.5514 78.6957C46.2929 78.9021 46.1432 79.1744 46.0582 79.4627V79.4627ZM44.8879 80.8129C44.9001 80.9735 44.9234 81.1327 44.9524 81.2913C45.0172 81.6069 45.112 81.9182 45.3051 82.2007C45.02 81.9985 44.8412 81.6728 44.7323 81.3471C44.622 81.0172 44.5769 80.6695 44.584 80.3242C44.5963 79.9792 44.6536 79.6322 44.7882 79.3083C44.9183 78.9898 45.1364 78.673 45.457 78.5256C45.2125 78.7688 45.0886 79.0705 45.0027 79.3782C44.9221 79.6882 44.8811 80.009 44.875 80.3305L44.8733 80.5719L44.8879 80.8129ZM107.683 85.7808C107.662 85.7587 107.422 85.6775 107.079 85.5951C106.967 85.5679 106.837 85.7152 106.707 85.6902C106.556 85.661 106.401 85.4601 106.237 85.439C106.048 85.4152 105.856 85.5554 105.669 85.5241C105.534 85.5013 105.316 85.3428 105.191 85.3218C105.058 85.2995 105.012 85.2913 104.883 85.2693C104.701 85.2382 104.529 85.3499 104.363 85.3205C104.174 85.2867 103.994 85.1119 103.843 85.0822C103.682 85.0512 103.554 85.18 103.456 85.1558C103.357 85.1316 103.288 84.9537 103.271 84.9389C103.119 84.7999 103.546 84.2329 103.546 84.2329C103.768 83.6337 103.374 82.3357 103.122 82.1962C102.87 82.0568 102.48 82.5896 102.083 82.2335C101.86 82.0325 101.774 79.9482 100.944 80.064C100.717 80.0956 100.541 80.2401 100.4 80.4417L98.6335 80.5503C98.8662 80.3196 99.2618 80.1952 99.8336 80.1144L100.944 80.064L100.222 79.9293C100.166 79.2132 98.306 76.6146 97.0565 76.6804C96.2742 75.2419 93.7274 73.7175 91.668 74.5349C88.158 72.4286 83.2696 76.4359 82.1378 82.0667L68.2482 80.5551C68.2902 72.187 62.7269 70.2127 60.673 71.2944C59.7564 70.4617 56.2415 69.9977 53.9156 72.6297C51.2226 73.2586 50.6658 75.1065 50.6658 75.1065C50.6658 75.1065 49.2471 75.1936 48.7622 75.4828C48.2775 75.7717 48.3883 77.9704 48.0083 78.287C47.6283 78.6034 45.5873 78.1636 45.5873 78.1636C45.5873 78.1636 44.3188 78.4127 44.1668 80.3012C44.0108 82.2404 45.1544 82.6664 45.1544 82.6664L47.1354 82.9009C47.1354 82.9009 47.6416 83.4285 47.4243 84.0507C47.207 84.673 47.6306 86.7015 47.6306 86.7015C47.6306 86.7015 47.8814 87.1607 49.2987 86.9337C49.0462 86.3464 48.8628 85.7284 48.7478 85.1C48.6495 84.5888 48.5972 84.07 48.5693 83.5509C48.5442 83.031 48.5601 82.5104 48.5969 81.9922C48.6813 80.9564 48.8716 79.9276 49.1961 78.9377C49.3564 78.4425 49.5534 77.9576 49.7961 77.4947C49.9174 77.2631 50.0566 77.0401 50.2099 76.8278C50.3622 76.6157 50.5406 76.4147 50.7606 76.2693C50.5604 76.4386 50.4083 76.6504 50.274 76.8689C50.1414 77.0889 50.024 77.3175 49.9243 77.5537C49.7169 78.0223 49.5521 78.5083 49.4133 79.0003C49.1388 79.9856 48.9645 80.9969 48.887 82.0136C48.8036 83.0298 48.8289 84.0545 48.9722 85.0642C49.044 85.5691 49.1527 86.0694 49.2999 86.5601C49.4408 87.0528 49.6329 87.531 49.8573 87.9981C49.67 87.702 49.506 87.3917 49.3614 87.0722C50.0192 89.2914 51.5098 89.8929 52.0005 90.3276C53.2732 93.4073 56.6239 93.7952 57.6087 93.5282C57.6087 93.5282 59.5688 94.7339 62.5435 93.4943C65.5184 92.2547 67.8562 87.9548 67.6732 86.3615L66.795 86.241C66.5289 87.0843 66.1807 87.9045 65.738 88.6756C65.2737 89.478 64.7076 90.2396 63.9744 90.8381C63.6097 91.1368 63.2008 91.3912 62.7497 91.5565C62.3024 91.7293 61.8099 91.7943 61.3268 91.7484C60.8455 91.6917 60.3762 91.5241 59.9745 91.2593C59.5676 91.001 59.2213 90.6634 58.9282 90.2917C58.3411 89.5452 57.9461 88.6759 57.6764 87.783C57.4107 86.887 57.2587 85.9625 57.2004 85.0342C57.1399 84.1058 57.1726 83.1731 57.2789 82.2491C57.3963 81.3266 57.5892 80.4126 57.8705 79.5234C58.1501 78.6343 58.5201 77.7701 58.9935 76.9595C59.4691 76.1523 60.0627 75.3974 60.8125 74.8055C61.1865 74.5107 61.6049 74.2615 62.0625 74.103C62.5166 73.9371 63.0131 73.8812 63.495 73.936C63.9757 74.0015 64.439 74.1767 64.8327 74.4471C65.2314 74.7107 65.5679 75.0511 65.8508 75.4248C66.4201 76.174 66.7878 77.0433 67.0463 77.9296C67.3028 78.819 67.4466 79.7369 67.4975 80.6579C67.5114 80.8996 67.5185 81.1413 67.52 81.3834L81.673 83.0168L81.6044 83.5805L67.5122 81.9542C67.4965 82.4438 67.4582 82.9327 67.3985 83.4191C67.3608 83.7316 67.3138 84.0433 67.2582 84.3536C67.3936 84.3695 67.529 84.3847 67.6643 84.4007L72.1781 84.9501L76.6876 85.5322L78.9409 85.8347L81.1922 86.152L78.9318 85.9036L76.6733 85.6404L72.1596 85.0907L67.6499 84.5086C67.5136 84.4903 67.3773 84.4718 67.2409 84.4537C67.1442 84.9749 67.0208 85.4914 66.869 86.0004L81.1062 87.8225C81.0479 93.5169 83.6856 99.3821 88.619 97.9726C91.614 99.7464 94.4796 97.8042 94.8821 97.0006C97.6664 96.5709 98.5029 94.4022 98.5029 94.4022C98.5029 94.4022 100.194 94.6714 100.622 94.4661C101.05 94.2608 101.188 92.6645 101.524 91.898C101.86 91.1316 102.451 91.2322 102.693 91.0877C102.936 90.9433 103.106 90.4511 103.077 90.3119C103.048 90.1728 106.254 90.8184 106.52 90.7899C106.787 90.7616 108.2 90.4099 108.39 88.586C108.581 86.762 107.778 85.8827 107.683 85.7808V85.7808ZM63.3223 85.8092C63.1688 85.8505 62.9968 85.8211 62.86 85.7361C62.7211 85.6527 62.6129 85.5302 62.5232 85.4007C62.3468 85.1367 62.2366 84.8399 62.1479 84.5416C62.06 84.2419 62.0067 83.9345 61.9698 83.6262C61.9334 83.3174 61.9162 83.0066 61.9231 82.6948C61.9353 82.3845 61.9678 82.0685 62.0632 81.7668C62.1526 81.4695 62.2638 81.1699 62.4388 80.9052C62.611 80.6401 62.8276 80.3997 63.0897 80.2182C63.3527 80.0391 63.6482 79.91 63.9557 79.8364C63.356 80.0343 62.8354 80.4301 62.5346 80.9609C62.3815 81.2237 62.2725 81.5075 62.1903 81.8023C62.103 82.0917 62.0763 82.3946 62.0687 82.6989C62.0477 83.3074 62.1147 83.9211 62.2564 84.514C62.3301 84.8093 62.4263 85.1028 62.5836 85.3637C62.6609 85.4938 62.7557 85.617 62.8813 85.7045C63.0052 85.7923 63.165 85.835 63.3223 85.8092V85.8092Z" stroke="#F7F0F0" stroke-width="0.0989793"/>
<path d="M16.8617 68.6577L11.0246 66.4089L10.9963 63.0101L11.2371 63.0094L11.2393 63.2803C11.2414 63.5266 11.2886 63.7235 11.3809 63.871C11.4425 63.9735 11.5452 64.0553 11.6889 64.1164C11.7934 64.1613 12.0647 64.183 12.503 64.1817L18.3212 64.1646C18.7725 64.1633 19.0543 64.1399 19.1667 64.0944C19.2791 64.0489 19.3782 63.9562 19.4638 63.8164C19.5451 63.6766 19.5847 63.4897 19.5828 63.2557L19.5805 62.9848L19.8213 62.9841L19.8576 67.3435L19.6168 67.3442L19.6146 67.0733C19.6125 66.827 19.5653 66.6301 19.473 66.4826C19.4114 66.3801 19.3066 66.2983 19.1585 66.2372C19.054 66.1923 18.7805 66.1706 18.3379 66.1719L11.7973 66.1912L19.8745 69.3692L19.8757 69.517L11.9108 72.7916L18.1261 72.7733C18.5599 72.772 18.8267 72.761 18.9263 72.7401C19.1428 72.6861 19.3197 72.5707 19.4571 72.3937C19.5901 72.2127 19.655 71.9314 19.6518 71.5496L19.8926 71.5489L19.9164 74.4059L19.6756 74.4066L19.6749 74.3204C19.6777 74.1356 19.6459 73.9633 19.5795 73.8034C19.5088 73.6435 19.4166 73.5227 19.3031 73.4409C19.1896 73.3592 19.0307 73.296 18.8265 73.2515C18.7787 73.2434 18.5573 73.24 18.1625 73.2411L12.5785 73.2576C12.1317 73.2589 11.8542 73.2823 11.7461 73.3278C11.6336 73.3733 11.5368 73.4659 11.4555 73.6057C11.3699 73.7455 11.3281 73.9324 11.33 74.1664L11.3322 74.4312L11.0914 74.4319L11.063 71.0207L16.8617 68.6577Z" fill="#F7F0F0" stroke="#F7F0F0" stroke-width="0.303883"/>
<path d="M18.9064 55.9995L18.21 58.8712L18.9646 59.3982C19.2166 59.5719 19.4335 59.6789 19.6153 59.7191C19.8564 59.7725 20.0563 59.7199 20.2151 59.5613C20.3089 59.4684 20.4241 59.2138 20.5607 58.7976L20.7954 58.8496L20.1397 61.5534L19.905 61.5014C19.9293 61.1994 19.8605 60.9315 19.6989 60.6978C19.5329 60.4631 19.1557 60.1354 18.567 59.7145L12.408 55.2878L12.4357 55.1739L20.201 53.8035C20.9371 53.6716 21.4136 53.5349 21.6306 53.3935C21.7947 53.2866 21.9173 53.1116 21.9985 52.8685L22.2333 52.9204L21.2795 56.8532L21.0448 56.8013L21.0841 56.6394C21.1607 56.3236 21.1679 56.0915 21.1059 55.943C21.0595 55.8401 20.9729 55.7747 20.8461 55.7466C20.7699 55.7297 20.6888 55.7244 20.6026 55.7306C20.5626 55.7302 20.3895 55.755 20.0832 55.8052L18.9064 55.9995ZM18.3875 56.0995L15.1313 56.6548L17.7915 58.5575L18.3875 56.0995Z" fill="#F7F0F0" stroke="#F7F0F0" stroke-width="0.303883"/>
<path d="M20.0329 44.7604L24.8674 43.678C25.5483 43.5245 26.0442 43.3518 26.3552 43.16C26.5784 43.0195 26.7441 42.8398 26.8525 42.6209L27.0707 42.7184L25.125 46.6477L24.9069 46.5502C25.0064 46.2911 25.0441 46.1131 25.02 46.0163C24.9978 45.9157 24.9435 45.8461 24.857 45.8075C24.6919 45.7338 24.2969 45.7657 23.6719 45.9034L20.5094 46.6045L20.6193 46.9934L22.8008 47.9679C23.2175 48.154 23.4879 48.2476 23.6122 48.2488C23.7364 48.2499 23.8671 48.2041 24.0043 48.1113C24.1375 48.0167 24.273 47.8303 24.4108 47.552L24.629 47.6495L22.7439 51.4563L22.5258 51.3589L22.6498 51.1084C22.7582 50.8895 22.8042 50.6948 22.7878 50.5244C22.7805 50.4033 22.7229 50.287 22.615 50.1753C22.5409 50.0924 22.3033 49.9614 21.9024 49.7823L16.6431 47.4329C16.2343 47.2503 15.9687 47.1566 15.8463 47.1518C15.7239 47.1469 15.5941 47.1909 15.457 47.2837C15.3177 47.371 15.1958 47.5204 15.091 47.7319L14.967 47.9824L14.7489 47.8849L16.6091 44.1281L16.8273 44.2256C16.7005 44.4816 16.6433 44.694 16.6558 44.8627C16.6631 44.9837 16.7178 45.101 16.8199 45.2146C16.8961 45.3031 17.1367 45.4377 17.5416 45.6186L20.0297 46.73L19.0162 42.8586C18.875 42.3197 18.7042 42.0055 18.5037 41.916C18.3544 41.8493 18.1969 41.8764 18.0315 41.9973C17.9478 42.0596 17.8202 42.2495 17.6485 42.5671L17.4304 42.4696L18.8882 39.5254L19.1064 39.6229C18.9956 39.8951 18.9438 40.1257 18.951 40.3147C18.9562 40.4982 19.0565 40.9644 19.2521 41.7133L20.0329 44.7604Z" fill="#F7F0F0" stroke="#F7F0F0" stroke-width="0.303883"/>
<path d="M23.1818 34.4493L26.0619 36.4939L26.1669 36.3611C26.5015 35.9381 26.6031 35.5315 26.4718 35.1413C26.3405 34.7511 26.0208 34.3347 25.5127 33.8921L25.6605 33.7052L29.365 36.335L29.2172 36.5219C28.7826 36.2748 28.386 36.1238 28.0274 36.069C27.6715 36.0109 27.3839 36.0346 27.1646 36.1401C26.9419 36.2431 26.7048 36.4536 26.4532 36.7717L28.4464 38.1866C28.8359 38.4632 29.0859 38.6176 29.1962 38.6498C29.3091 38.6788 29.4271 38.6704 29.5501 38.6246C29.6732 38.5789 29.81 38.4609 29.9604 38.2707L30.2755 37.8723C30.7683 37.2493 31.0095 36.6422 30.9991 36.0511C30.9912 35.4567 30.7391 34.8553 30.2427 34.2469L30.3866 34.0649L32.3981 35.9613L27.8386 41.726L27.6455 41.5889L27.8206 41.3676C27.9736 41.1741 28.0603 40.9924 28.0806 40.8225C28.0993 40.7027 28.0677 40.5778 27.9858 40.448C27.9308 40.3526 27.7259 40.179 27.3711 39.9272L22.717 36.6232C22.397 36.396 22.194 36.2647 22.108 36.2293C21.9603 36.1756 21.8184 36.1696 21.6823 36.2112C21.4863 36.2667 21.3028 36.4026 21.1316 36.6191L20.9565 36.8404L20.7635 36.7033L25.179 31.1207L27.2713 32.606L27.1235 32.7929C26.5369 32.525 26.0636 32.3989 25.7035 32.4147C25.346 32.4272 24.9906 32.5537 24.6373 32.7945C24.4295 32.9336 24.1258 33.2557 23.7264 33.7607L23.1818 34.4493Z" fill="#F7F0F0" stroke="#F7F0F0" stroke-width="0.303883"/>
<path d="M38.6809 19.6159L38.8282 19.7968C38.6221 19.9933 38.4971 20.1854 38.4532 20.373C38.3931 20.6347 38.426 21.205 38.5517 22.084L38.9933 25.5849L40.2994 27.1882C40.5781 27.5304 40.7709 27.7301 40.8777 27.7874C40.9818 27.8414 41.1153 27.8611 41.2782 27.8464C41.4419 27.8259 41.6164 27.7483 41.8018 27.6135L42.193 27.329L42.3403 27.5099L38.4227 30.359L38.2753 30.1782L38.6409 29.9123C38.8468 29.7626 38.9819 29.6098 39.0463 29.454C39.0984 29.3435 39.105 29.2141 39.0662 29.0659C39.0402 28.9602 38.8919 28.7412 38.6211 28.4088L37.538 27.0792L33.5823 25.4334C32.7997 25.11 32.3016 24.9481 32.0881 24.9476C31.872 24.944 31.651 25.0216 31.4253 25.1806L31.278 24.9997L34.6242 22.5661L34.7715 22.747L34.6222 22.8556C34.4197 23.0028 34.2999 23.1341 34.2626 23.2494C34.2288 23.3622 34.2371 23.4496 34.2876 23.5115C34.3832 23.6288 34.7607 23.8239 35.4202 24.0968L38.4693 25.3743L38.0969 22.4615C38.011 21.7455 37.903 21.3077 37.773 21.148C37.7013 21.06 37.5969 21.0192 37.4599 21.0254C37.2769 21.0288 37.0225 21.1359 36.6969 21.3468L36.5496 21.1659L38.6809 19.6159Z" fill="#F7F0F0" stroke="#F7F0F0" stroke-width="0.303883"/>
<path d="M45.9686 15.8058C47.2143 15.1931 48.4207 15.0826 49.5877 15.4744C50.7586 15.8644 51.6267 16.6198 52.1922 17.7407C52.6752 18.6982 52.8047 19.6731 52.5806 20.6654C52.2846 21.9811 51.4222 22.959 49.9936 23.5991C48.561 24.2409 47.2211 24.277 45.974 23.7073C44.9886 23.2569 44.2441 22.5325 43.7404 21.5342C43.175 20.4133 43.1053 19.3002 43.5314 18.1947C43.9595 17.0837 44.7719 16.2874 45.9686 15.8059L45.9686 15.8058ZM46.2188 16.1306C45.4908 16.4568 45.1148 17.0575 45.0909 17.9328C45.0737 18.6503 45.3385 19.5509 45.8852 20.6347C46.5349 21.9225 47.2539 22.7675 48.0422 23.1697C48.5921 23.4511 49.1665 23.4577 49.7654 23.1894C50.1685 23.0088 50.4583 22.7652 50.6348 22.4586C50.8594 22.0667 50.9366 21.568 50.8662 20.9625C50.794 20.3533 50.5464 19.6293 50.1232 18.7905C49.6196 17.7921 49.1454 17.09 48.7007 16.684C48.2541 16.2744 47.8266 16.0359 47.4184 15.9685C47.014 15.8995 46.6142 15.9535 46.2188 16.1306V16.1306Z" fill="#F7F0F0" stroke="#F7F0F0" stroke-width="0.303883"/>
<path d="M53.9264 12.8219L58.3579 11.8419L58.4138 12.0638L58.1922 12.1128C57.8588 12.1865 57.6373 12.2714 57.5278 12.3673C57.4216 12.4583 57.3556 12.5679 57.3299 12.6959C57.3084 12.8231 57.3561 13.1185 57.4728 13.5822L58.4754 17.5635C58.6586 18.2911 58.8369 18.7602 59.0102 18.9708C59.1878 19.1805 59.4292 19.3339 59.7343 19.431C60.0395 19.5281 60.3946 19.5319 60.7998 19.4423C61.264 19.3396 61.634 19.1544 61.9097 18.8867C62.1885 18.614 62.3644 18.2861 62.4372 17.9028C62.5142 17.5187 62.444 16.8949 62.2266 16.0314L61.3916 12.7156C61.3 12.3518 61.1945 12.1009 61.075 11.9627C60.9556 11.8245 60.8271 11.739 60.6896 11.7061C60.4765 11.6562 60.1969 11.6695 59.8509 11.746L59.795 11.5242L62.7641 10.8676L62.82 11.0894L62.6427 11.1286C62.4022 11.1818 62.2133 11.2721 62.076 11.3995C61.9388 11.5269 61.8575 11.6905 61.832 11.8903C61.8094 12.0303 61.8398 12.2662 61.9234 12.598L62.701 15.686C62.9416 16.6414 63.0477 17.3458 63.0193 17.7994C62.9952 18.2521 62.7705 18.7132 62.3452 19.1828C61.9199 19.6525 61.2619 19.9858 60.3714 20.1827C59.6286 20.3469 59.031 20.3799 58.5785 20.2817C57.9612 20.1481 57.4882 19.9066 57.1597 19.5573C56.8311 19.208 56.5817 18.6955 56.4116 18.0199L55.4091 14.0386C55.2913 13.5709 55.1909 13.2871 55.1078 13.1873C55.0238 13.0835 54.9057 13.0126 54.7535 12.9745C54.6013 12.9364 54.3442 12.9595 53.9823 13.0438L53.9264 12.8219Z" fill="#F7F0F0" stroke="#F7F0F0" stroke-width="0.303883"/>
<path d="M69.615 14.9116L69.6941 17.2506C69.7093 17.7019 69.7472 17.9864 69.8076 18.1039C69.8722 18.2172 69.9794 18.3069 70.1292 18.3728C70.279 18.4388 70.5555 18.4666 70.9589 18.4562L70.9666 18.6839L66.4521 18.8003L66.4444 18.5725C66.852 18.562 67.1262 18.5201 67.267 18.4466C67.4119 18.369 67.5106 18.2719 67.5631 18.1556C67.62 18.0391 67.6407 17.7552 67.6255 17.3039L67.4423 11.8874C67.427 11.4361 67.3871 11.1537 67.3225 11.0404C67.2621 10.9228 67.157 10.8311 67.0072 10.7651C66.8574 10.6992 66.5808 10.6714 66.1775 10.6818L66.1698 10.454L70.2679 10.3484C71.3348 10.321 72.1177 10.3706 72.6168 10.4974C73.1159 10.6241 73.528 10.8723 73.853 11.2417C74.1778 11.6071 74.3488 12.0421 74.3659 12.5468C74.3867 13.1623 74.1697 13.6772 73.715 14.0914C73.4243 14.3535 73.0123 14.5551 72.4788 14.6962L74.6951 17.4667C74.985 17.8247 75.19 18.0474 75.3101 18.1346C75.4922 18.2572 75.7006 18.3217 75.9352 18.328L75.9429 18.5557L73.1652 18.6273L70.1939 14.8967L69.615 14.9116ZM69.4766 10.8185L69.6002 14.4746L69.971 14.4651C70.5738 14.4495 71.0231 14.3866 71.3188 14.2763C71.6144 14.1619 71.8422 13.9671 72.0022 13.692C72.1664 13.4126 72.241 13.0533 72.2262 12.6143C72.2047 11.9783 72.0305 11.5125 71.7037 11.217C71.3812 10.9214 70.8708 10.7826 70.1726 10.8006L69.4766 10.8185Z" fill="#F7F0F0" stroke="#F7F0F0" stroke-width="0.303883"/>
<path d="M88.7934 12.2945C90.1636 12.602 91.1573 13.264 91.7743 14.2804C92.3955 15.298 92.5343 16.4041 92.1906 17.5988C91.897 18.6195 91.3225 19.4348 90.4672 20.0447C89.3339 20.8542 88.0032 21.059 86.4749 20.6591C84.9425 20.2582 83.8987 19.4576 83.3435 18.2574C82.905 17.3089 82.8389 16.3026 83.145 15.2385C83.4887 14.0437 84.2041 13.1611 85.2911 12.5905C86.3836 12.0171 87.551 11.9184 88.7934 12.2946L88.7934 12.2945ZM88.7595 12.694C87.9807 12.4903 87.2802 12.7111 86.6578 13.3565C86.1495 13.8871 85.7292 14.7299 85.3969 15.8851C85.002 17.2578 84.9655 18.3393 85.2874 19.1297C85.5112 19.6817 85.9435 20.0415 86.5841 20.2091C87.0154 20.322 87.4039 20.3173 87.7497 20.1951C88.191 20.0383 88.5939 19.7098 88.9584 19.2097C89.324 18.7055 89.6354 18.0065 89.8926 17.1124C90.1987 16.0482 90.3228 15.2257 90.2648 14.6448C90.208 14.0599 90.0475 13.616 89.7835 13.3129C89.5237 13.011 89.1824 12.8047 88.7595 12.6941L88.7595 12.694Z" fill="#F7F0F0" stroke="#F7F0F0" stroke-width="0.303883"/>
<path d="M108.509 20.9698L108.391 21.1678C108.241 21.1015 108.097 21.074 107.961 21.0856C107.824 21.0971 107.679 21.1486 107.524 21.2401C107.476 21.2707 107.192 21.4834 106.673 21.8782L100.693 26.5757L100.472 26.457L101.353 20.7561L96.4665 24.3093L96.2566 24.1968L97.2558 16.9138C97.3535 16.1799 97.3886 15.7231 97.3608 15.5435C97.3331 15.3638 97.2046 15.1984 96.9753 15.0472L97.0932 14.8491L100.429 16.6378L100.311 16.8359C100.039 16.6991 99.8356 16.642 99.7023 16.6647C99.5749 16.6859 99.4804 16.7482 99.4187 16.8517C99.338 16.9873 99.2595 17.3243 99.1834 17.8626L98.5946 22.1943L101.442 20.0907L101.583 19.1494C101.66 18.635 101.693 18.2829 101.681 18.093C101.672 17.8995 101.623 17.739 101.534 17.6114C101.449 17.4858 101.287 17.3591 101.049 17.2314L101.167 17.0333L104.895 19.032L104.777 19.23C104.514 19.0937 104.315 19.0129 104.18 18.9878C104.086 18.9701 103.998 18.9795 103.916 19.0158C103.837 19.0486 103.775 19.1025 103.73 19.1774C103.681 19.2595 103.616 19.5567 103.536 20.0691L102.89 24.2574L105.997 21.8194C106.32 21.5692 106.532 21.3933 106.633 21.2917C106.733 21.1902 106.813 21.0894 106.873 20.9895C106.96 20.8432 106.975 20.7006 106.918 20.5617C106.863 20.4193 106.688 20.2644 106.394 20.097L106.512 19.8989L108.509 20.9698Z" fill="#F7F0F0" stroke="#F7F0F0" stroke-width="0.303883"/>
<path d="M113.572 25.1961L113.026 31.7903L115.613 29.1755C115.974 28.8108 116.162 28.5149 116.178 28.2878C116.197 27.9794 116.024 27.6693 115.66 27.3575L115.824 27.1915L117.957 29.0815L117.793 29.2474C117.488 29.0384 117.261 28.9187 117.112 28.8881C116.97 28.8574 116.812 28.8779 116.64 28.9497C116.474 29.0213 116.249 29.2006 115.965 29.4877L110.956 34.5513L110.794 34.4079L111.436 25.4758L107.612 29.3419C107.266 29.6917 107.117 30.0025 107.164 30.2741C107.214 30.5486 107.348 30.7829 107.567 30.9769L107.72 31.1119L107.556 31.2779L105.265 29.2487L105.429 29.0828C105.788 29.3948 106.104 29.5453 106.376 29.5345C106.649 29.5237 106.945 29.3569 107.265 29.0339L111.51 24.7417L111.532 24.4579C111.555 24.1755 111.54 23.9625 111.485 23.8189C111.431 23.6752 111.308 23.5132 111.117 23.3329L111.281 23.1669L113.572 25.1961Z" fill="#F7F0F0" stroke="#F7F0F0" stroke-width="0.303883"/>
<path d="M120.958 40.5712L118.866 41.7635C118.458 41.9961 118.215 42.1659 118.137 42.2729C118.065 42.3814 118.035 42.5134 118.049 42.669C118.065 42.8281 118.176 43.0695 118.383 43.3932L118.177 43.5105L115.85 39.874L116.056 39.7567C116.267 40.0874 116.442 40.2929 116.579 40.3731C116.723 40.4547 116.861 40.4887 116.994 40.4753C117.129 40.4654 117.401 40.3441 117.809 40.1115L122.704 37.3209C123.112 37.0884 123.352 36.9179 123.424 36.8094C123.503 36.7024 123.535 36.5711 123.522 36.4155C123.508 36.2599 123.397 36.0185 123.187 35.6913L123.393 35.5739L125.39 38.6932C126.047 39.7206 126.326 40.5677 126.227 41.2344C126.127 41.9012 125.788 42.3994 125.209 42.7292C124.72 43.0083 124.208 43.1029 123.675 43.0131C123.142 42.9233 122.65 42.661 122.2 42.2262C121.892 41.9356 121.478 41.384 120.958 40.5712L120.958 40.5712ZM124.652 38.4656L121.392 40.3238C121.459 40.4442 121.511 40.5343 121.55 40.5941C121.824 41.0234 122.17 41.278 122.585 41.358C123.005 41.4359 123.496 41.3142 124.06 40.9928C124.62 40.6736 124.955 40.3239 125.066 39.9437C125.177 39.5635 125.085 39.1429 124.79 38.6819L124.652 38.4656Z" fill="#F7F0F0" stroke="#F7F0F0" stroke-width="0.303883"/>
<path d="M126.318 53.6243L123.303 54.3533L120.533 47.4063L120.758 47.3268L120.861 47.5864C120.952 47.8134 121.067 47.981 121.208 48.0894C121.305 48.1694 121.433 48.2119 121.592 48.217C121.706 48.2249 121.971 48.1558 122.385 48.0097L127.815 46.0922C128.237 45.9432 128.493 45.8289 128.581 45.7493C128.67 45.6697 128.727 45.5509 128.752 45.3929C128.782 45.2373 128.754 45.0499 128.666 44.8306L128.563 44.571L128.788 44.4914L130.452 48.6631L130.227 48.7426L130.091 48.4022C130 48.1752 129.885 48.0076 129.744 47.8992C129.648 47.8192 129.519 47.7748 129.358 47.7658C129.243 47.7579 128.979 47.827 128.565 47.9732L123.305 49.8304C122.883 49.9795 122.623 50.0979 122.523 50.1856C122.428 50.2719 122.379 50.3923 122.376 50.547C122.378 50.6561 122.452 50.8953 122.599 51.2646L122.859 51.9165C123.025 52.332 123.24 52.651 123.505 52.8735C123.77 53.0959 124.108 53.2484 124.521 53.331C124.935 53.4173 125.503 53.4362 126.224 53.3877L126.318 53.6243Z" fill="#F7F0F0" stroke="#F7F0F0" stroke-width="0.303883"/>
<path d="M127.312 60.9393L126.801 58.0275L125.893 57.8103C125.59 57.7399 125.347 57.7188 125.163 57.7468C124.919 57.7841 124.756 57.9047 124.673 58.1087C124.623 58.2286 124.619 58.5059 124.66 58.9407L124.423 58.9769L123.942 56.2353L124.18 56.1991C124.279 56.4878 124.45 56.7114 124.693 56.8699C124.94 57.0277 125.42 57.1958 126.133 57.3742L133.597 59.2627L133.617 59.3782L126.998 63.44C126.372 63.8268 125.987 64.1248 125.843 64.334C125.735 64.492 125.692 64.6983 125.715 64.9528L125.477 64.989L124.778 61.0012L125.015 60.965L125.044 61.1292C125.1 61.4493 125.187 61.6671 125.304 61.7824C125.388 61.8611 125.494 61.8906 125.622 61.8711C125.699 61.8594 125.777 61.8351 125.854 61.7983C125.891 61.7844 126.041 61.6991 126.303 61.5425L127.312 60.9393ZM127.75 60.6601L130.533 58.9748L127.313 58.1678L127.75 60.6601Z" fill="#F7F0F0" stroke="#F7F0F0" stroke-width="0.303883"/>
<path d="M134.273 69.7404L128.638 73.6341L132.429 73.7878C132.958 73.8093 133.319 73.752 133.511 73.6161C133.77 73.4294 133.905 73.1042 133.915 72.6404L134.156 72.6502L134.045 75.4061L133.804 75.3964C133.771 75.0417 133.717 74.8013 133.644 74.6751C133.575 74.5532 133.455 74.4538 133.285 74.3771C133.118 74.3046 132.827 74.26 132.411 74.2431L125.068 73.9453L125.077 73.7362L132.646 68.3928L127.04 68.1655C126.533 68.1449 126.186 68.2397 126 68.4499C125.813 68.6641 125.714 68.9127 125.703 69.1957L125.695 69.3926L125.454 69.3828L125.573 66.4238L125.814 66.4336C125.8 66.8931 125.886 67.217 126.074 67.4054C126.262 67.5938 126.59 67.6974 127.058 67.7164L133.282 67.9688L133.524 67.7999C133.765 67.633 133.925 67.4834 134.004 67.3511C134.083 67.2187 134.133 67.0256 134.151 66.7717L134.392 66.7815L134.273 69.7404Z" fill="#F7F0F0" stroke="#F7F0F0" stroke-width="0.303883"/>
</svg>
